<svg width="430" height="230" viewBox="0 0 430 230" fill="none" xmlns="http://www.w3.org/2000/svg">
<path d="M0 230V0H430V129.324L429 131.779C412.6 164.847 376.167 188.12 360 195.623C324.4 213.302 315 212.402 260.5 209.128C218.5 202.58 139.5 193.577 117.5 195.623C45 202.366 30.6667 219.769 0 230Z" fill="url(#paint0_linear_2_3)"/>
<path d="M0 230V0H430V129.324L429 131.779C412.6 164.847 376.167 188.12 360 195.623C324.4 213.302 315 212.402 260.5 209.128C218.5 202.58 139.5 193.577 117.5 195.623C45 202.366 30.6667 219.769 0 230Z" fill="url(#paint1_linear_2_3)"/>
<path d="M110 72.0285C86.8 42.2349 52.3333 11.5955 38 0H391V0.409253C385.4 45.9182 387.5 99.8577 357.5 128.915C338.908 146.922 307.5 162.064 261.5 162.064C223 162.064 186.333 136.827 174.5 128.915C147.3 112.217 120.167 84.0333 110 72.0285Z" fill="url(#paint2_linear_2_3)"/>
<path d="M110 72.0285C86.8 42.2349 52.3333 11.5955 38 0H391V0.409253C385.4 45.9182 387.5 99.8577 357.5 128.915C338.908 146.922 307.5 162.064 261.5 162.064C223 162.064 186.333 136.827 174.5 128.915C147.3 112.217 120.167 84.0333 110 72.0285Z" fill="url(#paint3_linear_2_3)"/>
<path d="M295.222 141.558L275.002 134.817V133.02C275.002 132.817 274.897 132.622 274.709 132.478C274.521 132.334 274.267 132.254 274.002 132.254C273.606 132.254 273.22 132.164 272.891 131.995C272.562 131.827 272.306 131.587 272.154 131.307C272.003 131.027 271.963 130.719 272.04 130.421C272.117 130.124 272.308 129.851 272.588 129.636C272.867 129.422 273.224 129.276 273.612 129.216C274 129.157 274.402 129.188 274.767 129.304C275.133 129.42 275.445 129.616 275.665 129.868C275.885 130.121 276.002 130.417 276.002 130.72C276.002 130.924 276.107 131.119 276.295 131.262C276.482 131.406 276.737 131.487 277.002 131.487C277.267 131.487 277.521 131.406 277.709 131.262C277.897 131.119 278.002 130.924 278.002 130.72C278.002 130.147 277.792 129.585 277.396 129.098C277 128.611 276.435 128.219 275.763 127.967C275.091 127.714 274.34 127.611 273.596 127.67C272.852 127.728 272.144 127.945 271.552 128.296C270.961 128.647 270.51 129.119 270.25 129.657C269.991 130.194 269.933 130.777 270.084 131.339C270.235 131.901 270.589 132.419 271.104 132.834C271.62 133.25 272.278 133.546 273.002 133.69V134.817L252.783 141.558C251.808 141.882 251.008 142.455 250.519 143.178C250.029 143.902 249.88 144.733 250.097 145.531C250.313 146.329 250.882 147.045 251.707 147.56C252.532 148.074 253.563 148.354 254.626 148.354H257.002C257.002 148.964 257.318 149.549 257.881 149.98C258.443 150.411 259.206 150.654 260.002 150.654C260.798 150.654 261.561 150.411 262.123 149.98C262.686 149.549 263.002 148.964 263.002 148.354H285.002C285.002 148.964 285.318 149.549 285.881 149.98C286.443 150.411 287.206 150.654 288.002 150.654C288.798 150.654 289.561 150.411 290.123 149.98C290.686 149.549 291.002 148.964 291.002 148.354H293.378C294.441 148.354 295.471 148.073 296.295 147.559C297.119 147.044 297.688 146.328 297.904 145.531C298.12 144.733 297.972 143.903 297.483 143.179C296.995 142.455 296.196 141.883 295.222 141.558ZM261.002 148.354C261.002 148.557 260.897 148.752 260.709 148.896C260.521 149.04 260.267 149.12 260.002 149.12C259.737 149.12 259.482 149.04 259.295 148.896C259.107 148.752 259.002 148.557 259.002 148.354V146.82C259.002 146.617 259.107 146.422 259.295 146.278C259.482 146.134 259.737 146.054 260.002 146.054C260.267 146.054 260.521 146.134 260.709 146.278C260.897 146.422 261.002 146.617 261.002 146.82V148.354ZM289.002 148.354C289.002 148.557 288.897 148.752 288.709 148.896C288.521 149.04 288.267 149.12 288.002 149.12C287.737 149.12 287.482 149.04 287.295 148.896C287.107 148.752 287.002 148.557 287.002 148.354V146.82C287.002 146.617 287.107 146.422 287.295 146.278C287.482 146.134 287.737 146.054 288.002 146.054C288.267 146.054 288.521 146.134 288.709 146.278C288.897 146.422 289.002 146.617 289.002 146.82V148.354ZM293.378 146.82H291.002C291.002 146.21 290.686 145.625 290.123 145.194C289.561 144.763 288.798 144.52 288.002 144.52C287.206 144.52 286.443 144.763 285.881 145.194C285.318 145.625 285.002 146.21 285.002 146.82H263.002C263.002 146.21 262.686 145.625 262.123 145.194C261.561 144.763 260.798 144.52 260.002 144.52C259.206 144.52 258.443 144.763 257.881 145.194C257.318 145.625 257.002 146.21 257.002 146.82H254.626C254.023 146.82 253.438 146.661 252.971 146.369C252.503 146.077 252.181 145.671 252.058 145.218C251.935 144.766 252.02 144.294 252.297 143.884C252.574 143.473 253.027 143.148 253.58 142.964L274.002 136.157L294.424 142.964C294.977 143.148 295.43 143.473 295.707 143.884C295.984 144.294 296.069 144.766 295.946 145.218C295.823 145.671 295.501 146.077 295.033 146.369C294.565 146.661 293.981 146.82 293.378 146.82Z" fill="white" fill-opacity="0.15"/>
<path d="M74.2219 104.752L54.0019 98.0113V96.2142C54.0019 96.0109 53.8965 95.8159 53.709 95.6721C53.5215 95.5284 53.2671 95.4476 53.0019 95.4476C52.6063 95.4476 52.2196 95.3577 51.8907 95.1892C51.5618 95.0207 51.3055 94.7812 51.1541 94.501C51.0028 94.2209 50.9631 93.9125 51.0403 93.6151C51.1175 93.3177 51.308 93.0445 51.5877 92.83C51.8674 92.6156 52.2237 92.4695 52.6117 92.4104C52.9997 92.3512 53.4018 92.3816 53.7673 92.4976C54.1327 92.6137 54.4451 92.8102 54.6648 93.0624C54.8846 93.3145 55.0019 93.611 55.0019 93.9142C55.0019 94.1176 55.1072 94.3126 55.2948 94.4564C55.4823 94.6001 55.7367 94.6809 56.0019 94.6809C56.2671 94.6809 56.5215 94.6001 56.709 94.4564C56.8965 94.3126 57.0019 94.1176 57.0019 93.9142C57.0019 93.3407 56.7921 92.7786 56.3963 92.2919C56.0005 91.8051 55.4346 91.4133 54.7628 91.1608C54.0911 90.9083 53.3405 90.8052 52.5962 90.8634C51.8519 90.9216 51.1438 91.1386 50.5524 91.4899C49.9609 91.8411 49.5098 92.3125 49.2503 92.8504C48.9908 93.3884 48.9332 93.9713 49.0842 94.5331C49.2351 95.0949 49.5886 95.6129 50.1043 96.0284C50.6201 96.4439 51.2775 96.7402 52.0019 96.8835V98.0113L31.7829 104.752C30.8076 105.076 30.0079 105.649 29.5186 106.372C29.0293 107.096 28.8804 107.927 29.0968 108.725C29.3132 109.523 29.8818 110.239 30.7068 110.753C31.5318 111.268 32.5627 111.548 33.6259 111.548H36.0019C36.0019 112.158 36.318 112.743 36.8806 113.174C37.4432 113.605 38.2062 113.848 39.0019 113.848C39.7975 113.848 40.5606 113.605 41.1232 113.174C41.6858 112.743 42.0019 112.158 42.0019 111.548H64.0019C64.0019 112.158 64.318 112.743 64.8806 113.174C65.4432 113.605 66.2062 113.848 67.0019 113.848C67.7975 113.848 68.5606 113.605 69.1232 113.174C69.6858 112.743 70.0019 112.158 70.0019 111.548H72.3779C73.4406 111.547 74.4707 111.267 75.2951 110.752C76.1194 110.238 76.6876 109.522 76.904 108.725C77.1205 107.927 76.9719 107.096 76.4835 106.373C75.995 105.649 75.1963 105.077 74.2219 104.752ZM40.0019 111.548C40.0019 111.751 39.8965 111.946 39.709 112.09C39.5215 112.233 39.2671 112.314 39.0019 112.314C38.7367 112.314 38.4823 112.233 38.2948 112.09C38.1072 111.946 38.0019 111.751 38.0019 111.548V110.014C38.0019 109.811 38.1072 109.616 38.2948 109.472C38.4823 109.328 38.7367 109.248 39.0019 109.248C39.2671 109.248 39.5215 109.328 39.709 109.472C39.8965 109.616 40.0019 109.811 40.0019 110.014V111.548ZM68.0019 111.548C68.0019 111.751 67.8965 111.946 67.709 112.09C67.5215 112.233 67.2671 112.314 67.0019 112.314C66.7367 112.314 66.4823 112.233 66.2948 112.09C66.1072 111.946 66.0019 111.751 66.0019 111.548V110.014C66.0019 109.811 66.1072 109.616 66.2948 109.472C66.4823 109.328 66.7367 109.248 67.0019 109.248C67.2671 109.248 67.5215 109.328 67.709 109.472C67.8965 109.616 68.0019 109.811 68.0019 110.014V111.548ZM72.3779 110.014H70.0019C70.0019 109.404 69.6858 108.819 69.1232 108.388C68.5606 107.957 67.7975 107.714 67.0019 107.714C66.2062 107.714 65.4432 107.957 64.8806 108.388C64.318 108.819 64.0019 109.404 64.0019 110.014H42.0019C42.0019 109.404 41.6858 108.819 41.1232 108.388C40.5606 107.957 39.7975 107.714 39.0019 107.714C38.2062 107.714 37.4432 107.957 36.8806 108.388C36.318 108.819 36.0019 109.404 36.0019 110.014H33.6259C33.0229 110.014 32.4384 109.855 31.9708 109.563C31.5031 109.271 31.1808 108.865 31.058 108.412C30.9352 107.96 31.0195 107.488 31.2967 107.078C31.5739 106.667 32.027 106.342 32.5799 106.158L53.0019 99.3507L73.4239 106.158C73.9768 106.342 74.4299 106.667 74.7071 107.078C74.9842 107.488 75.0685 107.96 74.9458 108.412C74.823 108.865 74.5007 109.271 74.033 109.563C73.5653 109.855 72.9809 110.014 72.3779 110.014Z" fill="white" fill-opacity="0.15"/>
<path d="M304.147 191.353L290.668 186.86V185.662C290.668 185.526 290.597 185.396 290.472 185.3C290.347 185.205 290.178 185.151 290.001 185.151C289.737 185.151 289.479 185.091 289.26 184.978C289.041 184.866 288.87 184.707 288.769 184.52C288.668 184.333 288.642 184.127 288.693 183.929C288.745 183.731 288.872 183.549 289.058 183.406C289.245 183.263 289.482 183.165 289.741 183.126C289.999 183.087 290.268 183.107 290.511 183.184C290.755 183.262 290.963 183.393 291.11 183.561C291.256 183.729 291.334 183.926 291.334 184.129C291.334 184.264 291.404 184.394 291.53 184.49C291.655 184.586 291.824 184.64 292.001 184.64C292.178 184.64 292.347 184.586 292.472 184.49C292.597 184.394 292.668 184.264 292.668 184.129C292.668 183.746 292.528 183.371 292.264 183.047C292 182.723 291.623 182.461 291.175 182.293C290.727 182.125 290.227 182.056 289.73 182.095C289.234 182.133 288.762 182.278 288.368 182.512C287.974 182.746 287.673 183.061 287.5 183.419C287.327 183.778 287.289 184.167 287.389 184.541C287.49 184.916 287.725 185.261 288.069 185.538C288.413 185.815 288.851 186.012 289.334 186.108V186.86L275.855 191.353C275.205 191.57 274.672 191.951 274.346 192.434C274.02 192.916 273.92 193.47 274.065 194.002C274.209 194.534 274.588 195.012 275.138 195.354C275.688 195.697 276.375 195.884 277.084 195.884H278.668C278.668 196.291 278.879 196.681 279.254 196.968C279.629 197.256 280.137 197.417 280.668 197.417C281.198 197.417 281.707 197.256 282.082 196.968C282.457 196.681 282.668 196.291 282.668 195.884H297.334C297.334 196.291 297.545 196.681 297.92 196.968C298.295 197.256 298.804 197.417 299.334 197.417C299.865 197.417 300.373 197.256 300.748 196.968C301.123 196.681 301.334 196.291 301.334 195.884H302.918C303.626 195.884 304.313 195.697 304.863 195.354C305.412 195.011 305.791 194.534 305.935 194.002C306.08 193.47 305.981 192.917 305.655 192.434C305.329 191.952 304.797 191.57 304.147 191.353ZM281.334 195.884C281.334 196.019 281.264 196.149 281.139 196.245C281.014 196.341 280.845 196.395 280.668 196.395C280.491 196.395 280.321 196.341 280.196 196.245C280.071 196.149 280.001 196.019 280.001 195.884V194.862C280.001 194.726 280.071 194.596 280.196 194.5C280.321 194.404 280.491 194.351 280.668 194.351C280.845 194.351 281.014 194.404 281.139 194.5C281.264 194.596 281.334 194.726 281.334 194.862V195.884ZM300.001 195.884C300.001 196.019 299.931 196.149 299.805 196.245C299.68 196.341 299.511 196.395 299.334 196.395C299.157 196.395 298.988 196.341 298.863 196.245C298.738 196.149 298.667 196.019 298.667 195.884V194.862C298.667 194.726 298.738 194.596 298.863 194.5C298.988 194.404 299.157 194.351 299.334 194.351C299.511 194.351 299.68 194.404 299.805 194.5C299.931 194.596 300.001 194.726 300.001 194.862V195.884ZM302.918 194.862H301.334C301.334 194.455 301.123 194.065 300.748 193.777C300.373 193.49 299.865 193.328 299.334 193.328C298.804 193.328 298.295 193.49 297.92 193.777C297.545 194.065 297.334 194.455 297.334 194.862H282.668C282.668 194.455 282.457 194.065 282.082 193.777C281.707 193.49 281.198 193.328 280.668 193.328C280.137 193.328 279.629 193.49 279.254 193.777C278.879 194.065 278.668 194.455 278.668 194.862H277.084C276.682 194.862 276.292 194.755 275.98 194.561C275.669 194.366 275.454 194.095 275.372 193.794C275.29 193.492 275.346 193.178 275.531 192.904C275.716 192.63 276.018 192.414 276.387 192.291L290.001 187.753L303.615 192.291C303.984 192.414 304.286 192.63 304.471 192.904C304.656 193.178 304.712 193.492 304.63 193.794C304.548 194.095 304.333 194.366 304.021 194.561C303.71 194.755 303.32 194.862 302.918 194.862Z" fill="white" fill-opacity="0.15"/>
<path d="M88 16.4793C87.7864 16.4793 87.5835 16.5499 87.4442 16.6725C87.0177 17.0482 77 25.9224 77 30.3751C77 34.9724 81.9346 38.7126 88 38.7126C94.0654 38.7126 99 34.9724 99 30.3751C99 25.9224 88.9823 17.0482 88.5558 16.6725C88.4165 16.5499 88.2136 16.4793 88 16.4793ZM97.5333 30.3751C97.5333 34.3595 93.2567 37.601 88 37.601C82.7433 37.601 78.4667 34.3595 78.4667 30.3751C78.4667 28.7331 80.1939 25.9818 83.4618 22.4184C85.2758 20.4403 87.1088 18.7164 88 17.9C88.8912 18.7164 90.7242 20.4403 92.5382 22.4184C95.8061 25.9818 97.5333 28.7331 97.5333 30.3751Z" fill="white" fill-opacity="0.15"/>
<path d="M87 35.8384C87 36.1559 87.3358 36.4134 87.75 36.4134C92.299 36.4134 96 33.576 96 30.0884C96 29.7708 95.6642 29.5134 95.25 29.5134C94.8358 29.5134 94.5 29.7708 94.5 30.0884C94.5 32.9419 91.472 35.2634 87.75 35.2634C87.3358 35.2634 87 35.5208 87 35.8384Z" fill="white" fill-opacity="0.15"/>
<path d="M263 74.7533C262.786 74.7533 262.583 74.8239 262.444 74.9465C262.018 75.3222 252 84.1964 252 88.6491C252 93.2464 256.935 96.9866 263 96.9866C269.065 96.9866 274 93.2464 274 88.6491C274 84.1964 263.982 75.3222 263.556 74.9465C263.417 74.8239 263.214 74.7533 263 74.7533ZM272.533 88.6491C272.533 92.6335 268.257 95.875 263 95.875C257.743 95.875 253.467 92.6335 253.467 88.6491C253.467 87.0071 255.194 84.2558 258.462 80.6924C260.276 78.7143 262.109 76.9904 263 76.1739C263.891 76.9904 265.724 78.7143 267.538 80.6924C270.806 84.2558 272.533 87.0071 272.533 88.6491Z" fill="white" fill-opacity="0.15"/>
<path d="M262 94.1124C262 94.4299 262.336 94.6874 262.75 94.6874C267.299 94.6874 271 91.85 271 88.3624C271 88.0448 270.664 87.7874 270.25 87.7874C269.836 87.7874 269.5 88.0448 269.5 88.3624C269.5 91.2159 266.472 93.5374 262.75 93.5374C262.336 93.5374 262 93.7948 262 94.1124Z" fill="white" fill-opacity="0.15"/>
<path d="M103 139.148C102.786 139.148 102.583 139.219 102.444 139.342C102.018 139.717 92 148.592 92 153.044C92 157.642 96.9346 161.382 103 161.382C109.065 161.382 114 157.642 114 153.044C114 148.592 103.982 139.717 103.556 139.342C103.417 139.219 103.214 139.148 103 139.148ZM112.533 153.044C112.533 157.029 108.257 160.27 103 160.27C97.7433 160.27 93.4667 157.029 93.4667 153.044C93.4667 151.402 95.1939 148.651 98.4618 145.088C100.276 143.109 102.109 141.386 103 140.569C103.891 141.386 105.724 143.109 107.538 145.088C110.806 148.651 112.533 151.402 112.533 153.044Z" fill="white" fill-opacity="0.15"/>
<path d="M102 158.508C102 158.825 102.336 159.083 102.75 159.083C107.299 159.083 111 156.245 111 152.758C111 152.44 110.664 152.183 110.25 152.183C109.836 152.183 109.5 152.44 109.5 152.758C109.5 155.611 106.472 157.933 102.75 157.933C102.336 157.933 102 158.19 102 158.508Z" fill="white" fill-opacity="0.15"/>
<path d="M103 139.148C102.786 139.148 102.583 139.219 102.444 139.342C102.018 139.717 92 148.592 92 153.044C92 157.642 96.9346 161.382 103 161.382C109.065 161.382 114 157.642 114 153.044C114 148.592 103.982 139.717 103.556 139.342C103.417 139.219 103.214 139.148 103 139.148ZM112.533 153.044C112.533 157.029 108.257 160.27 103 160.27C97.7433 160.27 93.4667 157.029 93.4667 153.044C93.4667 151.402 95.1939 148.651 98.4618 145.088C100.276 143.109 102.109 141.386 103 140.569C103.891 141.386 105.724 143.109 107.538 145.088C110.806 148.651 112.533 151.402 112.533 153.044Z" fill="white" fill-opacity="0.15"/>
<path d="M102 158.508C102 158.825 102.336 159.083 102.75 159.083C107.299 159.083 111 156.245 111 152.758C111 152.44 110.664 152.183 110.25 152.183C109.836 152.183 109.5 152.44 109.5 152.758C109.5 155.611 106.472 157.933 102.75 157.933C102.336 157.933 102 158.19 102 158.508Z" fill="white" fill-opacity="0.15"/>
<path d="M337.483 19.5493C337.299 19.5493 337.124 19.6102 337.004 19.7159C336.636 20.0397 328 27.6899 328 31.5285C328 35.4917 332.254 38.716 337.483 38.716C342.712 38.716 346.966 35.4917 346.966 31.5285C346.966 27.6899 338.33 20.0397 337.962 19.7159C337.842 19.6102 337.667 19.5493 337.483 19.5493ZM345.701 31.5285C345.701 34.9633 342.014 37.7576 337.483 37.7576C332.951 37.7576 329.264 34.9633 329.264 31.5285C329.264 30.113 330.753 27.7411 333.57 24.6692C335.134 22.964 336.714 21.4778 337.483 20.774C338.251 21.4778 339.831 22.964 341.395 24.6692C344.212 27.7411 345.701 30.113 345.701 31.5285Z" fill="white" fill-opacity="0.15"/>
<path d="M336.621 36.2377C336.621 36.5114 336.91 36.7334 337.267 36.7334C341.189 36.7334 344.379 34.2873 344.379 31.2808C344.379 31.007 344.09 30.7851 343.733 30.7851C343.376 30.7851 343.086 31.007 343.086 31.2808C343.086 33.7407 340.476 35.742 337.267 35.742C336.91 35.742 336.621 35.9639 336.621 36.2377Z" fill="white" fill-opacity="0.15"/>
<path d="M194 73.5622C190.923 73.5622 187.916 72.8469 185.358 71.5066C182.8 70.1664 180.806 68.2615 179.628 66.0328C178.451 63.8041 178.143 61.3517 178.743 58.9857C179.343 56.6197 180.825 54.4464 183 52.7407C185.176 51.0349 187.948 49.8732 190.965 49.4026C193.983 48.932 197.11 49.1735 199.953 50.0967C202.795 51.0198 205.225 52.5832 206.934 54.5889C208.643 56.5947 209.555 58.9529 209.555 61.3652C209.551 64.599 207.911 67.6993 204.994 69.986C202.078 72.2726 198.124 73.5587 194 73.5622ZM194 50.9107C191.363 50.9107 188.785 51.5238 186.592 52.6726C184.4 53.8213 182.691 55.4541 181.682 57.3644C180.672 59.2748 180.408 61.3768 180.923 63.4048C181.437 65.4328 182.707 67.2956 184.572 68.7577C186.437 70.2198 188.812 71.2155 191.399 71.6189C193.985 72.0223 196.666 71.8152 199.102 71.024C201.539 70.2327 203.621 68.8927 205.086 67.1735C206.551 65.4542 207.333 63.4329 207.333 61.3652C207.329 58.5934 205.923 55.936 203.424 53.9761C200.924 52.0161 197.535 50.9137 194 50.9107Z" fill="white" fill-opacity="0.15"/>
<path d="M194 52.6527C191.802 52.6527 189.654 53.1636 187.827 54.1209C186 55.0782 184.575 56.4389 183.734 58.0308C182.893 59.6227 182.673 61.3745 183.102 63.0644C183.531 64.7544 184.589 66.3068 186.143 67.5252C187.697 68.7436 189.677 69.5734 191.832 69.9095C193.987 70.2457 196.222 70.0731 198.252 69.4137C200.282 68.7543 202.017 67.6377 203.238 66.205C204.459 64.7723 205.111 63.0879 205.111 61.3648C205.108 59.055 203.936 56.8405 201.853 55.2072C199.77 53.5739 196.946 52.6552 194 52.6527ZM194 54.3951C196.29 54.3973 198.49 55.0922 200.142 56.3352C201.795 57.5781 202.772 59.2731 202.87 61.0668C201.348 60.6245 199.726 60.4328 198.106 60.5035C196.485 60.5743 194.901 60.906 193.451 61.4781C192.153 61.9748 190.729 62.2334 189.285 62.2343C187.841 62.2352 186.416 61.9784 185.118 61.4833C185.118 61.4432 185.11 61.4049 185.11 61.3648C185.112 59.5168 186.05 57.7451 187.717 56.4385C189.383 55.1318 191.643 54.3969 194 54.3951ZM194 68.3345C192.122 68.3322 190.293 67.8645 188.775 66.9983C187.257 66.132 186.127 64.9116 185.546 63.5115C186.75 63.8229 188.01 63.9805 189.278 63.9784C191.113 64.0032 192.926 63.6636 194.549 62.9914C195.81 62.5108 197.19 62.2538 198.592 62.2388C199.994 62.2237 201.383 62.4509 202.66 62.9042C202.213 64.4442 201.113 65.8199 199.54 66.8063C197.967 67.7926 196.014 68.3314 194 68.3345Z" fill="white" fill-opacity="0.15"/>
<path d="M208.444 38.7127H179.556C178.083 38.7141 176.671 39.1734 175.629 39.9901C174.588 40.8067 174.002 41.9139 174 43.0687V72.6899C174.002 73.8448 174.588 74.952 175.629 75.7686C176.671 76.5852 178.083 77.0446 179.556 77.046H208.444C209.917 77.0446 211.329 76.5852 212.371 75.7686C213.412 74.952 213.998 73.8448 214 72.6899V43.0687C213.998 41.9139 213.412 40.8067 212.371 39.9901C211.329 39.1734 209.917 38.7141 208.444 38.7127ZM208.444 40.4551C209.329 40.4551 210.176 40.7305 210.801 41.2206C211.427 41.7108 211.778 42.3756 211.778 43.0687V45.6824H187.333V40.4551H208.444ZM176.222 43.0687C176.222 42.3756 176.573 41.7108 177.199 41.2206C177.824 40.7305 178.672 40.4551 179.556 40.4551H185.111V45.6824H176.222V43.0687ZM211.778 72.6899C211.778 73.3831 211.427 74.0479 210.801 74.5381C210.176 75.0282 209.329 75.3036 208.444 75.3036H179.556C178.672 75.3036 177.824 75.0282 177.199 74.5381C176.573 74.0479 176.222 73.3831 176.222 72.6899V47.4248H211.778V72.6899Z" fill="white" fill-opacity="0.15"/>
<path d="M180.667 43.9403C181.28 43.9403 181.778 43.5503 181.778 43.0691C181.778 42.588 181.28 42.1979 180.667 42.1979C180.053 42.1979 179.556 42.588 179.556 43.0691C179.556 43.5503 180.053 43.9403 180.667 43.9403Z" fill="white" fill-opacity="0.15"/>
<path d="M207.333 43.9403H205.111C204.816 43.9403 204.534 43.8485 204.325 43.6852C204.117 43.5218 204 43.3002 204 43.0691C204 42.8381 204.117 42.6165 204.325 42.4531C204.534 42.2897 204.816 42.1979 205.111 42.1979H207.333C207.628 42.1979 207.911 42.2897 208.119 42.4531C208.327 42.6165 208.444 42.8381 208.444 43.0691C208.444 43.3002 208.327 43.5218 208.119 43.6852C207.911 43.8485 207.628 43.9403 207.333 43.9403Z" fill="white" fill-opacity="0.15"/>
<path d="M200.667 43.9403H198.445C198.15 43.9403 197.867 43.8485 197.659 43.6852C197.451 43.5218 197.333 43.3002 197.333 43.0691C197.333 42.8381 197.451 42.6165 197.659 42.4531C197.867 42.2897 198.15 42.1979 198.445 42.1979H200.667C200.962 42.1979 201.244 42.2897 201.453 42.4531C201.661 42.6165 201.778 42.8381 201.778 43.0691C201.778 43.3002 201.661 43.5218 201.453 43.6852C201.244 43.8485 200.962 43.9403 200.667 43.9403Z" fill="white" fill-opacity="0.15"/>
<path d="M194 73.5622C190.923 73.5622 187.916 72.8469 185.358 71.5066C182.8 70.1664 180.806 68.2615 179.628 66.0328C178.451 63.8041 178.143 61.3517 178.743 58.9857C179.343 56.6197 180.825 54.4464 183 52.7407C185.176 51.0349 187.948 49.8732 190.965 49.4026C193.983 48.932 197.11 49.1735 199.953 50.0967C202.795 51.0198 205.225 52.5832 206.934 54.5889C208.643 56.5947 209.555 58.9529 209.555 61.3652C209.551 64.599 207.911 67.6993 204.994 69.986C202.078 72.2726 198.124 73.5587 194 73.5622ZM194 50.9107C191.363 50.9107 188.785 51.5238 186.592 52.6726C184.4 53.8213 182.691 55.4541 181.682 57.3644C180.672 59.2748 180.408 61.3768 180.923 63.4048C181.437 65.4328 182.707 67.2956 184.572 68.7577C186.437 70.2198 188.812 71.2155 191.399 71.6189C193.985 72.0223 196.666 71.8152 199.102 71.024C201.539 70.2327 203.621 68.8927 205.086 67.1735C206.551 65.4542 207.333 63.4329 207.333 61.3652C207.329 58.5934 205.923 55.936 203.424 53.9761C200.924 52.0161 197.535 50.9137 194 50.9107Z" fill="white" fill-opacity="0.15"/>
<path d="M194 52.6527C191.802 52.6527 189.654 53.1636 187.827 54.1209C186 55.0782 184.575 56.4389 183.734 58.0308C182.893 59.6227 182.673 61.3745 183.102 63.0644C183.531 64.7544 184.589 66.3068 186.143 67.5252C187.697 68.7436 189.677 69.5734 191.832 69.9095C193.987 70.2457 196.222 70.0731 198.252 69.4137C200.282 68.7543 202.017 67.6377 203.238 66.205C204.459 64.7723 205.111 63.0879 205.111 61.3648C205.108 59.055 203.936 56.8405 201.853 55.2072C199.77 53.5739 196.946 52.6552 194 52.6527ZM194 54.3951C196.29 54.3973 198.49 55.0922 200.142 56.3352C201.795 57.5781 202.772 59.2731 202.87 61.0668C201.348 60.6245 199.726 60.4328 198.106 60.5035C196.485 60.5743 194.901 60.906 193.451 61.4781C192.153 61.9748 190.729 62.2334 189.285 62.2343C187.841 62.2352 186.416 61.9784 185.118 61.4833C185.118 61.4432 185.11 61.4049 185.11 61.3648C185.112 59.5168 186.05 57.7451 187.717 56.4385C189.383 55.1318 191.643 54.3969 194 54.3951ZM194 68.3345C192.122 68.3322 190.293 67.8645 188.775 66.9983C187.257 66.132 186.127 64.9116 185.546 63.5115C186.75 63.8229 188.01 63.9805 189.278 63.9784C191.113 64.0032 192.926 63.6636 194.549 62.9914C195.81 62.5108 197.19 62.2538 198.592 62.2388C199.994 62.2237 201.383 62.4509 202.66 62.9042C202.213 64.4442 201.113 65.8199 199.54 66.8063C197.967 67.7926 196.014 68.3314 194 68.3345Z" fill="white" fill-opacity="0.15"/>
<path d="M208.444 38.7127H179.556C178.083 38.7141 176.671 39.1734 175.629 39.9901C174.588 40.8067 174.002 41.9139 174 43.0687V72.6899C174.002 73.8448 174.588 74.952 175.629 75.7686C176.671 76.5852 178.083 77.0446 179.556 77.046H208.444C209.917 77.0446 211.329 76.5852 212.371 75.7686C213.412 74.952 213.998 73.8448 214 72.6899V43.0687C213.998 41.9139 213.412 40.8067 212.371 39.9901C211.329 39.1734 209.917 38.7141 208.444 38.7127ZM208.444 40.4551C209.329 40.4551 210.176 40.7305 210.801 41.2206C211.427 41.7108 211.778 42.3756 211.778 43.0687V45.6824H187.333V40.4551H208.444ZM176.222 43.0687C176.222 42.3756 176.573 41.7108 177.199 41.2206C177.824 40.7305 178.672 40.4551 179.556 40.4551H185.111V45.6824H176.222V43.0687ZM211.778 72.6899C211.778 73.3831 211.427 74.0479 210.801 74.5381C210.176 75.0282 209.329 75.3036 208.444 75.3036H179.556C178.672 75.3036 177.824 75.0282 177.199 74.5381C176.573 74.0479 176.222 73.3831 176.222 72.6899V47.4248H211.778V72.6899Z" fill="white" fill-opacity="0.15"/>
<path d="M180.667 43.9403C181.28 43.9403 181.778 43.5503 181.778 43.0691C181.778 42.588 181.28 42.1979 180.667 42.1979C180.053 42.1979 179.556 42.588 179.556 43.0691C179.556 43.5503 180.053 43.9403 180.667 43.9403Z" fill="white" fill-opacity="0.15"/>
<path d="M207.333 43.9403H205.111C204.816 43.9403 204.534 43.8485 204.325 43.6852C204.117 43.5218 204 43.3002 204 43.0691C204 42.8381 204.117 42.6165 204.325 42.4531C204.534 42.2897 204.816 42.1979 205.111 42.1979H207.333C207.628 42.1979 207.911 42.2897 208.119 42.4531C208.327 42.6165 208.444 42.8381 208.444 43.0691C208.444 43.3002 208.327 43.5218 208.119 43.6852C207.911 43.8485 207.628 43.9403 207.333 43.9403Z" fill="white" fill-opacity="0.15"/>
<path d="M200.667 43.9403H198.445C198.15 43.9403 197.867 43.8485 197.659 43.6852C197.451 43.5218 197.333 43.3002 197.333 43.0691C197.333 42.8381 197.451 42.6165 197.659 42.4531C197.867 42.2897 198.15 42.1979 198.445 42.1979H200.667C200.962 42.1979 201.244 42.2897 201.453 42.4531C201.661 42.6165 201.778 42.8381 201.778 43.0691C201.778 43.3002 201.661 43.5218 201.453 43.6852C201.244 43.8485 200.962 43.9403 200.667 43.9403Z" fill="white" fill-opacity="0.15"/>
<path d="M18.1999 210.035C16.477 210.035 14.7928 209.635 13.3603 208.884C11.9277 208.134 10.8112 207.067 10.1519 205.819C9.49254 204.571 9.32003 203.197 9.65616 201.872C9.99228 200.548 10.8219 199.331 12.0402 198.375C13.2585 197.42 14.8106 196.77 16.5004 196.506C18.1902 196.242 19.9417 196.378 21.5335 196.895C23.1252 197.412 24.4857 198.287 25.4429 199.41C26.4001 200.534 26.911 201.854 26.911 203.205C26.9085 205.016 25.99 206.752 24.3568 208.033C22.7237 209.313 20.5095 210.033 18.1999 210.035ZM18.1999 197.35C16.7231 197.35 15.2795 197.694 14.0516 198.337C12.8237 198.98 11.8667 199.895 11.3016 200.965C10.7364 202.034 10.5886 203.212 10.8767 204.347C11.1648 205.483 11.8759 206.526 12.9202 207.345C13.9644 208.164 15.2948 208.721 16.7432 208.947C18.1916 209.173 19.6929 209.057 21.0573 208.614C22.4216 208.171 23.5877 207.42 24.4082 206.458C25.2286 205.495 25.6666 204.363 25.6666 203.205C25.6644 201.653 24.8771 200.165 23.4773 199.067C22.0774 197.97 20.1795 197.352 18.1999 197.35Z" fill="white" fill-opacity="0.15"/>
<path d="M18.1998 198.32C16.9691 198.32 15.7661 198.606 14.7429 199.142C13.7196 199.678 12.9221 200.44 12.4512 201.332C11.9802 202.223 11.857 203.204 12.0971 204.151C12.3372 205.097 12.9298 205.966 13.8 206.649C14.6702 207.331 15.7789 207.796 16.9859 207.984C18.1929 208.172 19.4439 208.076 20.5809 207.706C21.7179 207.337 22.6896 206.712 23.3734 205.909C24.0571 205.107 24.422 204.164 24.422 203.199C24.4202 201.905 23.764 200.665 22.5975 199.751C21.431 198.836 19.8494 198.322 18.1998 198.32ZM18.1998 199.296C19.4821 199.297 20.7143 199.686 21.6397 200.382C22.565 201.078 23.1121 202.028 23.167 203.032C22.3147 202.784 21.4066 202.677 20.4991 202.717C19.5916 202.756 18.7043 202.942 17.8924 203.262C17.1658 203.541 16.368 203.685 15.5595 203.686C14.7509 203.686 13.9529 203.543 13.2257 203.265C13.2257 203.243 13.2214 203.221 13.2214 203.199C13.2228 202.164 13.7479 201.172 14.6812 200.44C15.6145 199.708 16.8799 199.297 18.1998 199.296ZM18.1998 207.102C17.1483 207.101 16.1242 206.839 15.274 206.354C14.4238 205.869 13.7909 205.185 13.4659 204.401C14.14 204.575 14.8455 204.664 15.5553 204.663C16.583 204.676 17.5984 204.486 18.5071 204.11C19.2133 203.841 19.9863 203.697 20.7713 203.688C21.5563 203.68 22.3341 203.807 23.0494 204.061C22.7992 204.923 22.1834 205.694 21.3025 206.246C20.4216 206.799 19.3277 207.1 18.1998 207.102Z" fill="white" fill-opacity="0.15"/>
<path d="M26.2889 190.518H10.1111C9.2863 190.519 8.49555 190.776 7.91231 191.233C7.32908 191.69 7.00099 192.31 7 192.957V209.545C7.00099 210.192 7.32908 210.812 7.91231 211.269C8.49555 211.726 9.2863 211.984 10.1111 211.984H26.2889C27.1137 211.984 27.9045 211.726 28.4877 211.269C29.0709 210.812 29.399 210.192 29.4 209.545V192.957C29.399 192.31 29.0709 191.69 28.4877 191.233C27.9045 190.776 27.1137 190.519 26.2889 190.518ZM26.2889 191.494C26.784 191.494 27.2588 191.648 27.6088 191.922C27.9589 192.197 28.1556 192.569 28.1556 192.957V194.421H14.4667V191.494H26.2889ZM8.24444 192.957C8.24444 192.569 8.44111 192.197 8.79118 191.922C9.14125 191.648 9.61604 191.494 10.1111 191.494H13.2222V194.421H8.24444V192.957ZM28.1556 209.545C28.1556 209.933 27.9589 210.306 27.6088 210.58C27.2588 210.855 26.784 211.009 26.2889 211.009H10.1111C9.61604 211.009 9.14125 210.855 8.79118 210.58C8.44111 210.306 8.24444 209.933 8.24444 209.545V195.397H28.1556V209.545Z" fill="white" fill-opacity="0.15"/>
<path d="M10.7336 193.441C11.0772 193.441 11.3558 193.223 11.3558 192.953C11.3558 192.684 11.0772 192.465 10.7336 192.465C10.3899 192.465 10.1113 192.684 10.1113 192.953C10.1113 193.223 10.3899 193.441 10.7336 193.441Z" fill="white" fill-opacity="0.15"/>
<path d="M25.6665 193.441H24.422C24.257 193.441 24.0987 193.39 23.982 193.298C23.8654 193.207 23.7998 193.083 23.7998 192.953C23.7998 192.824 23.8654 192.7 23.982 192.608C24.0987 192.517 24.257 192.465 24.422 192.465H25.6665C25.8315 192.465 25.9898 192.517 26.1064 192.608C26.2231 192.7 26.2887 192.824 26.2887 192.953C26.2887 193.083 26.2231 193.207 26.1064 193.298C25.9898 193.39 25.8315 193.441 25.6665 193.441Z" fill="white" fill-opacity="0.15"/>
<path d="M21.9336 193.441H20.6891C20.5241 193.441 20.3658 193.39 20.2491 193.298C20.1324 193.207 20.0669 193.083 20.0669 192.953C20.0669 192.824 20.1324 192.7 20.2491 192.608C20.3658 192.517 20.5241 192.465 20.6891 192.465H21.9336C22.0986 192.465 22.2569 192.517 22.3735 192.608C22.4902 192.7 22.5558 192.824 22.5558 192.953C22.5558 193.083 22.4902 193.207 22.3735 193.298C22.2569 193.39 22.0986 193.441 21.9336 193.441Z" fill="white" fill-opacity="0.15"/>
<path d="M411 94.1231C409.154 94.1231 407.349 93.6939 405.815 92.8898C404.28 92.0857 403.083 90.9427 402.377 89.6055C401.671 88.2683 401.486 86.7968 401.846 85.3773C402.206 83.9577 403.095 82.6537 404.4 81.6302C405.705 80.6068 407.369 79.9098 409.179 79.6274C410.989 79.345 412.866 79.49 414.572 80.0439C416.277 80.5977 417.735 81.5357 418.76 82.7392C419.786 83.9427 420.333 85.3576 420.333 86.805C420.331 88.7452 419.346 90.6054 417.597 91.9774C415.847 93.3494 413.474 94.1211 411 94.1231ZM411 80.5322C409.418 80.5322 407.871 80.9001 406.555 81.5894C405.24 82.2786 404.214 83.2583 403.609 84.4045C403.003 85.5507 402.845 86.8119 403.154 88.0287C403.462 89.2455 404.224 90.3632 405.343 91.2405C406.462 92.1177 407.887 92.7151 409.439 92.9572C410.991 93.1992 412.599 93.075 414.061 92.6002C415.523 92.1254 416.773 91.3214 417.652 90.2899C418.531 89.2584 419 88.0456 419 86.805C418.998 85.1419 418.154 83.5474 416.654 82.3715C415.154 81.1955 413.121 80.534 411 80.5322Z" fill="white" fill-opacity="0.15"/>
<path d="M411 81.5816C409.681 81.5816 408.392 81.8882 407.296 82.4626C406.2 83.037 405.345 83.8534 404.84 84.8085C404.336 85.7637 404.204 86.8147 404.461 87.8287C404.718 88.8427 405.353 89.7741 406.286 90.5051C407.218 91.2362 408.406 91.734 409.699 91.9357C410.992 92.1374 412.333 92.0339 413.551 91.6383C414.769 91.2426 415.81 90.5726 416.543 89.713C417.275 88.8534 417.666 87.8428 417.666 86.8089C417.664 85.423 416.961 84.0943 415.712 83.1143C414.462 82.1344 412.767 81.5832 411 81.5816ZM411 82.6271C412.374 82.6284 413.694 83.0454 414.685 83.7911C415.677 84.5369 416.263 85.5539 416.322 86.6301C415.409 86.3647 414.436 86.2497 413.463 86.2921C412.491 86.3346 411.54 86.5336 410.67 86.8769C409.892 87.1749 409.037 87.33 408.171 87.3306C407.305 87.3311 406.449 87.177 405.67 86.88C405.67 86.8559 405.666 86.8329 405.666 86.8089C405.667 85.7001 406.23 84.6371 407.23 83.8531C408.23 83.0691 409.586 82.6282 411 82.6271ZM411 90.9907C409.873 90.9893 408.776 90.7087 407.865 90.189C406.954 89.6692 406.276 88.937 405.928 88.0969C406.65 88.2837 407.406 88.3783 408.166 88.3771C409.267 88.3919 410.355 88.1882 411.329 87.7848C412.086 87.4965 412.914 87.3423 413.755 87.3333C414.596 87.3243 415.429 87.4606 416.196 87.7326C415.928 88.6566 415.268 89.4819 414.324 90.0738C413.38 90.6656 412.208 90.9889 411 90.9907Z" fill="white" fill-opacity="0.15"/>
<path d="M419.667 73.2148H402.333C401.45 73.2156 400.602 73.4912 399.977 73.9812C399.353 74.4712 399.001 75.1355 399 75.8284V93.6011C399.001 94.2941 399.353 94.9584 399.977 95.4483C400.602 95.9383 401.45 96.2139 402.333 96.2148H419.667C420.55 96.2139 421.398 95.9383 422.023 95.4483C422.647 94.9584 422.999 94.2941 423 93.6011V75.8284C422.999 75.1355 422.647 74.4712 422.023 73.9812C421.398 73.4912 420.55 73.2156 419.667 73.2148ZM419.667 74.2602C420.197 74.2602 420.706 74.4255 421.081 74.7195C421.456 75.0136 421.667 75.4125 421.667 75.8284V77.3966H407V74.2602H419.667ZM400.333 75.8284C400.333 75.4125 400.544 75.0136 400.919 74.7195C401.294 74.4255 401.803 74.2602 402.333 74.2602H405.667V77.3966H400.333V75.8284ZM421.667 93.6011C421.667 94.0171 421.456 94.4159 421.081 94.71C420.706 95.0041 420.197 95.1693 419.667 95.1693H402.333C401.803 95.1693 401.294 95.0041 400.919 94.71C400.544 94.4159 400.333 94.0171 400.333 93.6011V78.4421H421.667V93.6011Z" fill="white" fill-opacity="0.15"/>
<path d="M403 76.3555C403.368 76.3555 403.667 76.1215 403.667 75.8328C403.667 75.5441 403.368 75.3101 403 75.3101C402.632 75.3101 402.333 75.5441 402.333 75.8328C402.333 76.1215 402.632 76.3555 403 76.3555Z" fill="white" fill-opacity="0.15"/>
<path d="M419 76.3555H417.667C417.49 76.3555 417.32 76.3004 417.195 76.2024C417.07 76.1044 417 75.9714 417 75.8328C417 75.6942 417.07 75.5612 417.195 75.4632C417.32 75.3651 417.49 75.3101 417.667 75.3101H419C419.177 75.3101 419.346 75.3651 419.471 75.4632C419.596 75.5612 419.667 75.6942 419.667 75.8328C419.667 75.9714 419.596 76.1044 419.471 76.2024C419.346 76.3004 419.177 76.3555 419 76.3555Z" fill="white" fill-opacity="0.15"/>
<path d="M415 76.3555H413.667C413.49 76.3555 413.32 76.3004 413.195 76.2024C413.07 76.1044 413 75.9714 413 75.8328C413 75.6942 413.07 75.5612 413.195 75.4632C413.32 75.3651 413.49 75.3101 413.667 75.3101H415C415.177 75.3101 415.346 75.3651 415.471 75.4632C415.596 75.5612 415.667 75.6942 415.667 75.8328C415.667 75.9714 415.596 76.1044 415.471 76.2024C415.346 76.3004 415.177 76.3555 415 76.3555Z" fill="white" fill-opacity="0.15"/>
<defs>
<linearGradient id="paint0_linear_2_3" x1="-166" y1="115.409" x2="430" y2="115.409" gradientUnits="userSpaceOnUse">
<stop stop-color="#651898"/>
<stop offset="1" stop-color="#2C0D8F"/>
</linearGradient>
<linearGradient id="paint1_linear_2_3" x1="-166" y1="115.409" x2="430" y2="115.409" gradientUnits="userSpaceOnUse">
<stop stop-color="#651898"/>
<stop offset="1" stop-color="#2C0D8F"/>
</linearGradient>
<linearGradient id="paint2_linear_2_3" x1="53.5" y1="14.3238" x2="318.136" y2="182.89" gradientUnits="userSpaceOnUse">
<stop stop-color="#13139B"/>
<stop offset="1" stop-color="#590A68"/>
</linearGradient>
<linearGradient id="paint3_linear_2_3" x1="53.5" y1="14.3238" x2="318.136" y2="182.89" gradientUnits="userSpaceOnUse">
<stop stop-color="#13139B"/>
<stop offset="1" stop-color="#590A68"/>
</linearGradient>
</defs>
</svg>
