<svg width="50" height="60" viewBox="0 0 50 60" fill="none" xmlns="http://www.w3.org/2000/svg">
<rect width="50" height="60" fill="white"/>
<path d="M10.9317 22.7823C8.19764 19.4375 7.59207 19.2981 8.17479 18.9663C10.1825 17.8248 12.3207 16.841 14.33 15.6995C15.7974 31.0896 21.4989 36.5698 25.2302 42.9525C14.8736 36.3773 7.71612 28.5827 7.64267 27.4047C7.6035 26.7792 7.80916 26.7145 12.6651 20.5923" fill="#4C4C6D"/>
<path d="M39.5284 22.7821C42.2624 19.4373 42.8679 19.2979 42.2852 18.9661C40.2776 17.8246 38.1393 16.8407 36.13 15.6992C34.6626 31.0894 28.9611 36.5695 25.2298 42.9522C35.5865 36.3771 42.7439 28.5824 42.8173 27.4044C42.8565 26.7789 42.6509 26.7142 37.7949 20.592" fill="#4C4C6D"/>
<path d="M10.9315 22.7833C8.19745 19.4384 7.59189 19.2991 8.1746 18.9673C10.1823 17.8258 12.3205 16.8419 14.3298 15.7004C15.7972 31.0906 21.4987 36.5707 25.23 42.9534C14.8734 36.3783 7.71594 28.5836 7.64249 27.4056C7.60331 26.7801 7.80898 26.7154 12.6649 20.5932" stroke="#1B9C85" stroke-width="0.5" stroke-miterlimit="10" stroke-linecap="round" stroke-linejoin="round"/>
<path d="M39.5284 22.7833C42.2624 19.4384 42.8679 19.2991 42.2852 18.9673C40.2776 17.8258 38.1393 16.8419 36.13 15.7004C34.6626 31.0906 28.9611 36.5707 25.2298 42.9534C35.5865 36.3783 42.7439 28.5836 42.8173 27.4056C42.8565 26.7801 42.6509 26.7154 37.7949 20.5932" stroke="#1B9C85" stroke-width="0.5" stroke-miterlimit="10" stroke-linecap="round" stroke-linejoin="round"/>
<path d="M36.1003 15.6488C32.5387 18.2984 29.1436 19.3354 25.2295 19.3354C21.3153 19.3354 17.9202 18.2984 14.3586 15.6488" stroke="#4C4C6D" stroke-width="0.5" stroke-miterlimit="10" stroke-linecap="round" stroke-linejoin="round"/>
<path d="M14.3586 15.6488C19.0644 24.4439 18.9077 24.3079 19.2848 24.3609C21.4214 23.1465 24.0118 21.1588 25.2295 19.3354" stroke="#4C4C6D" stroke-width="0.5" stroke-miterlimit="10" stroke-linecap="round" stroke-linejoin="round"/>
<path d="M36.1006 15.6488C31.3948 24.4439 31.5515 24.3079 31.1745 24.3609C29.0379 23.1465 26.4475 21.1588 25.2298 19.3354" stroke="#4C4C6D" stroke-width="0.5" stroke-miterlimit="10" stroke-linecap="round" stroke-linejoin="round"/>
<path d="M21.2784 23.0865C23.4102 26.7449 22.4112 25.8141 26.4462 25.9469C28.0441 26 28.5289 24.0704 28.7852 22.7978" stroke="#4C4C6D" stroke-width="0.5" stroke-miterlimit="10" stroke-linecap="round" stroke-linejoin="round"/>
<path d="M23.1895 25.8605C21.9882 28.8751 20.9517 31.9445 20.2515 35.1185" stroke="#4C4C6D" stroke-width="0.5" stroke-miterlimit="10" stroke-linecap="round" stroke-linejoin="round"/>
<path d="M27.3894 25.6948C28.6332 28.4424 29.7692 31.0754 30.9151 33.8677" stroke="#4C4C6D" stroke-width="0.5" stroke-miterlimit="10" stroke-linecap="round" stroke-linejoin="round"/>
<path d="M20.2515 35.1169C22.0845 31.9811 25.0797 29.3414 28.3768 27.903" stroke="#4C4C6D" stroke-width="0.5" stroke-miterlimit="10" stroke-linecap="round" stroke-linejoin="round"/>
<path d="M23.0251 39.4608C23.1916 39.187 25.2009 35.532 30.3833 32.5754" stroke="#4C4C6D" stroke-width="0.5" stroke-miterlimit="10" stroke-linecap="round" stroke-linejoin="round"/>
<path d="M24.5919 9.64064C23.0364 11.0045 20.6892 9.61077 20.9112 7.59326C21.316 3.90002 26.5817 2.44495 29.2292 4.39942C31.6955 6.22115 32.0122 9.3619 29.6209 11.3744C28.0262 12.7167 26.283 12.1974 25.6268 14.6131C25.1975 16.1959 25.2318 17.4884 25.2138 19.3317" stroke="#4C4C6D" stroke-width="0.5" stroke-miterlimit="10" stroke-linecap="round" stroke-linejoin="round"/>
<path d="M3.99 53C3.91667 53 3.85667 52.9767 3.81 52.93C3.76333 52.8833 3.74 52.8233 3.74 52.75V46.25C3.74 46.1767 3.76333 46.1167 3.81 46.07C3.85667 46.0233 3.91667 46 3.99 46H5.1C5.17333 46 5.23333 46.0233 5.28 46.07C5.32667 46.1167 5.35 46.1767 5.35 46.25V51.66H8.45C8.52333 51.66 8.58333 51.6833 8.63 51.73C8.67667 51.7767 8.7 51.8367 8.7 51.91V52.75C8.7 52.8233 8.67667 52.8833 8.63 52.93C8.58333 52.9767 8.52333 53 8.45 53H3.99ZM11.0389 53.1C10.6856 53.1 10.3689 53.0333 10.0889 52.9C9.80891 52.76 9.58557 52.5733 9.41891 52.34C9.25224 52.1067 9.16891 51.8467 9.16891 51.56C9.16891 51.0867 9.35891 50.7133 9.73891 50.44C10.1256 50.1667 10.6322 49.98 11.2589 49.88L12.5689 49.69V49.51C12.5689 49.25 12.5089 49.05 12.3889 48.91C12.2689 48.77 12.0589 48.7 11.7589 48.7C11.5389 48.7 11.3622 48.7433 11.2289 48.83C11.0956 48.9167 10.9922 49.03 10.9189 49.17C10.8656 49.2567 10.7889 49.3 10.6889 49.3H9.73891C9.66557 49.3 9.60891 49.28 9.56891 49.24C9.52891 49.1933 9.51224 49.14 9.51891 49.08C9.51891 48.9667 9.56224 48.8333 9.64891 48.68C9.73557 48.5267 9.86891 48.3767 10.0489 48.23C10.2289 48.0767 10.4589 47.95 10.7389 47.85C11.0189 47.75 11.3622 47.7 11.7689 47.7C12.1889 47.7 12.5489 47.75 12.8489 47.85C13.1489 47.95 13.3889 48.09 13.5689 48.27C13.7489 48.45 13.8822 48.66 13.9689 48.9C14.0556 49.1333 14.0989 49.3867 14.0989 49.66V52.75C14.0989 52.8233 14.0756 52.8833 14.0289 52.93C13.9822 52.9767 13.9222 53 13.8489 53H12.8689C12.8022 53 12.7456 52.9767 12.6989 52.93C12.6522 52.8833 12.6289 52.8233 12.6289 52.75V52.38C12.5422 52.5067 12.4256 52.6267 12.2789 52.74C12.1322 52.8467 11.9556 52.9333 11.7489 53C11.5489 53.0667 11.3122 53.1 11.0389 53.1ZM11.4389 52.06C11.6589 52.06 11.8556 52.0133 12.0289 51.92C12.2022 51.8267 12.3389 51.6833 12.4389 51.49C12.5389 51.2967 12.5889 51.0533 12.5889 50.76V50.59L11.6589 50.74C11.2989 50.8 11.0356 50.89 10.8689 51.01C10.7022 51.13 10.6189 51.2767 10.6189 51.45C10.6189 51.5767 10.6556 51.6867 10.7289 51.78C10.8089 51.8733 10.9122 51.9433 11.0389 51.99C11.1656 52.0367 11.2989 52.06 11.4389 52.06ZM17.2197 53.1C16.833 53.1 16.4897 53.0133 16.1897 52.84C15.8964 52.66 15.6664 52.4033 15.4997 52.07C15.3397 51.73 15.2597 51.32 15.2597 50.84V48.05C15.2597 47.9767 15.283 47.9167 15.3297 47.87C15.3764 47.8233 15.433 47.8 15.4997 47.8H16.5597C16.633 47.8 16.693 47.8233 16.7397 47.87C16.7864 47.9167 16.8097 47.9767 16.8097 48.05V50.78C16.8097 51.5267 17.1364 51.9 17.7897 51.9C18.103 51.9 18.3497 51.8033 18.5297 51.61C18.7164 51.41 18.8097 51.1333 18.8097 50.78V48.05C18.8097 47.9767 18.833 47.9167 18.8797 47.87C18.9264 47.8233 18.9864 47.8 19.0597 47.8H20.1197C20.1864 47.8 20.243 47.8233 20.2897 47.87C20.3364 47.9167 20.3597 47.9767 20.3597 48.05V52.75C20.3597 52.8233 20.3364 52.8833 20.2897 52.93C20.243 52.9767 20.1864 53 20.1197 53H19.1397C19.0664 53 19.0064 52.9767 18.9597 52.93C18.913 52.8833 18.8897 52.8233 18.8897 52.75V52.36C18.7164 52.6 18.493 52.7833 18.2197 52.91C17.9464 53.0367 17.613 53.1 17.2197 53.1ZM21.8583 53C21.7916 53 21.7349 52.9767 21.6883 52.93C21.6416 52.8833 21.6183 52.8233 21.6183 52.75V48.05C21.6183 47.9767 21.6416 47.9167 21.6883 47.87C21.7349 47.8233 21.7916 47.8 21.8583 47.8H22.8383C22.9116 47.8 22.9716 47.8233 23.0183 47.87C23.0649 47.9167 23.0883 47.9767 23.0883 48.05V48.44C23.2616 48.2267 23.4849 48.05 23.7583 47.91C24.0316 47.77 24.3649 47.7 24.7583 47.7C25.1516 47.7 25.4949 47.79 25.7883 47.97C26.0883 48.1433 26.3216 48.4 26.4883 48.74C26.6616 49.0733 26.7483 49.48 26.7483 49.96V52.75C26.7483 52.8233 26.7216 52.8833 26.6683 52.93C26.6216 52.9767 26.5649 53 26.4983 53H25.4383C25.3649 53 25.3049 52.9767 25.2583 52.93C25.2116 52.8833 25.1883 52.8233 25.1883 52.75V50.02C25.1883 49.6667 25.1016 49.3933 24.9283 49.2C24.7616 49 24.5149 48.9 24.1883 48.9C23.8749 48.9 23.6249 49 23.4383 49.2C23.2516 49.3933 23.1583 49.6667 23.1583 50.02V52.75C23.1583 52.8233 23.1349 52.8833 23.0883 52.93C23.0416 52.9767 22.9849 53 22.9183 53H21.8583ZM29.8764 53.1C29.5431 53.1 29.2464 53.0467 28.9864 52.94C28.7264 52.8267 28.5064 52.6667 28.3264 52.46C28.1464 52.2467 28.0097 51.9967 27.9164 51.71C27.8231 51.4167 27.7664 51.0933 27.7464 50.74C27.7397 50.6133 27.7364 50.5 27.7364 50.4C27.7364 50.2933 27.7397 50.18 27.7464 50.06C27.7597 49.7133 27.8131 49.3967 27.9064 49.11C28.0064 48.8233 28.1431 48.5767 28.3164 48.37C28.4964 48.1567 28.7164 47.9933 28.9764 47.88C29.2431 47.76 29.5431 47.7 29.8764 47.7C30.2231 47.7 30.5197 47.76 30.7664 47.88C31.0131 47.9933 31.2164 48.1433 31.3764 48.33V46.15C31.3764 46.0767 31.3997 46.0167 31.4464 45.97C31.4931 45.9233 31.5531 45.9 31.6264 45.9H32.6564C32.7231 45.9 32.7797 45.9233 32.8264 45.97C32.8731 46.0167 32.8964 46.0767 32.8964 46.15V52.75C32.8964 52.8233 32.8731 52.8833 32.8264 52.93C32.7797 52.9767 32.7231 53 32.6564 53H31.6964C31.6297 53 31.5731 52.9767 31.5264 52.93C31.4797 52.8833 31.4564 52.8233 31.4564 52.75V52.41C31.2897 52.61 31.0797 52.7767 30.8264 52.91C30.5731 53.0367 30.2564 53.1 29.8764 53.1ZM30.3364 51.9C30.5831 51.9 30.7797 51.8433 30.9264 51.73C31.0797 51.6167 31.1897 51.4733 31.2564 51.3C31.3297 51.1267 31.3697 50.94 31.3764 50.74C31.3897 50.6133 31.3964 50.4867 31.3964 50.36C31.3964 50.2333 31.3897 50.11 31.3764 49.99C31.3697 49.8033 31.3297 49.63 31.2564 49.47C31.1831 49.3033 31.0697 49.1667 30.9164 49.06C30.7697 48.9533 30.5764 48.9 30.3364 48.9C30.0831 48.9 29.8831 48.9567 29.7364 49.07C29.5897 49.1767 29.4831 49.32 29.4164 49.5C29.3564 49.68 29.3197 49.8767 29.3064 50.09C29.2864 50.2967 29.2864 50.5033 29.3064 50.71C29.3197 50.9233 29.3564 51.12 29.4164 51.3C29.4831 51.48 29.5897 51.6267 29.7364 51.74C29.8831 51.8467 30.0831 51.9 30.3364 51.9ZM34.4071 53C34.3404 53 34.2838 52.9767 34.2371 52.93C34.1904 52.8833 34.1671 52.8233 34.1671 52.75V48.05C34.1671 47.9833 34.1904 47.9267 34.2371 47.88C34.2838 47.8267 34.3404 47.8 34.4071 47.8H35.3871C35.4538 47.8 35.5104 47.8267 35.5571 47.88C35.6104 47.9267 35.6371 47.9833 35.6371 48.05V48.45C35.8038 48.2433 36.0071 48.0833 36.2471 47.97C36.4938 47.8567 36.7771 47.8 37.0971 47.8H37.5271C37.5938 47.8 37.6504 47.8233 37.6971 47.87C37.7438 47.9167 37.7671 47.9767 37.7671 48.05V48.91C37.7671 48.9833 37.7438 49.0433 37.6971 49.09C37.6504 49.1367 37.5938 49.16 37.5271 49.16H36.6471C36.3538 49.16 36.1238 49.2433 35.9571 49.41C35.7904 49.57 35.7071 49.8 35.7071 50.1V52.75C35.7071 52.8233 35.6838 52.8833 35.6371 52.93C35.5904 52.9767 35.5304 53 35.4571 53H34.4071ZM39.4628 54.9C39.4095 54.9 39.3595 54.88 39.3128 54.84C39.2728 54.8 39.2528 54.75 39.2528 54.69C39.2528 54.6767 39.2561 54.6567 39.2628 54.63C39.2695 54.61 39.2795 54.5833 39.2928 54.55L40.0728 52.68L38.1528 48.15C38.1328 48.0967 38.1228 48.0533 38.1228 48.02C38.1295 47.96 38.1528 47.91 38.1928 47.87C38.2328 47.8233 38.2828 47.8 38.3428 47.8H39.3128C39.3995 47.8 39.4628 47.8233 39.5028 47.87C39.5428 47.91 39.5728 47.9533 39.5928 48L40.8328 51.1L42.1028 48C42.1295 47.9467 42.1628 47.9 42.2028 47.86C42.2428 47.82 42.3061 47.8 42.3928 47.8H43.3428C43.4028 47.8 43.4528 47.8233 43.4928 47.87C43.5395 47.91 43.5628 47.9567 43.5628 48.01C43.5628 48.0433 43.5495 48.09 43.5228 48.15L40.6928 54.7C40.6728 54.7533 40.6395 54.8 40.5928 54.84C40.5528 54.88 40.4895 54.9 40.4028 54.9H39.4628Z" fill="black"/>
</svg>
