<svg width="370" height="244" viewBox="0 0 370 244" fill="none" xmlns="http://www.w3.org/2000/svg">
<path d="M4.24463 194.858C4.99768 204.397 5.77355 213.935 6.52661 223.451C7.50786 235.454 18.1875 244.4 30.3733 243.578C133.313 236.595 236.641 236.595 339.581 243.578C351.767 244.4 362.447 235.454 363.428 223.451C364.181 213.912 364.957 204.374 365.71 194.858C245.427 185.547 124.551 185.547 4.24463 194.858Z" fill="#E1C4FF"/>
<path d="M346.792 0H23.1849C10.383 0 0 10.383 0 23.1849V202.434C0 215.236 10.383 225.619 23.1849 225.619H346.815C359.617 225.619 370 215.236 370 202.434V23.1849C369.977 10.383 359.594 0 346.792 0Z" fill="#CD7FFF"/>
<path opacity="0.5" d="M346.792 0H176.534C156.064 29.8711 143.605 74.3697 194.082 121.447C230.525 155.448 239.22 193.01 236.732 225.596H346.815C359.617 225.596 370 215.213 370 202.411V23.1621C369.977 10.383 359.594 0 346.792 0Z" fill="url(#paint0_linear_2_3005)"/>
<path d="M36.116 189.358C36.116 187.294 36.452 185.686 37.124 184.534C37.796 183.37 38.972 182.788 40.652 182.788C42.32 182.788 43.49 183.37 44.162 184.534C44.834 185.686 45.17 187.294 45.17 189.358C45.17 191.458 44.834 193.09 44.162 194.254C43.49 195.418 42.32 196 40.652 196C38.972 196 37.796 195.418 37.124 194.254C36.452 193.09 36.116 191.458 36.116 189.358ZM43.55 189.358C43.55 188.314 43.478 187.432 43.334 186.712C43.202 185.98 42.92 185.392 42.488 184.948C42.068 184.504 41.456 184.282 40.652 184.282C39.836 184.282 39.212 184.504 38.78 184.948C38.36 185.392 38.078 185.98 37.934 186.712C37.802 187.432 37.736 188.314 37.736 189.358C37.736 190.438 37.802 191.344 37.934 192.076C38.078 192.808 38.36 193.396 38.78 193.84C39.212 194.284 39.836 194.506 40.652 194.506C41.456 194.506 42.068 194.284 42.488 193.84C42.92 193.396 43.202 192.808 43.334 192.076C43.478 191.344 43.55 190.438 43.55 189.358ZM46.9867 184.48V182.986H50.3707V196H48.7147V184.48H46.9867ZM59.5744 179.044L54.6424 199.06H53.0224L57.9364 179.044H59.5744ZM61.5469 194.686C63.0709 193.462 64.2649 192.46 65.1289 191.68C65.9929 190.888 66.7189 190.066 67.3069 189.214C67.9069 188.35 68.2069 187.504 68.2069 186.676C68.2069 185.896 68.0149 185.284 67.6309 184.84C67.2589 184.384 66.6529 184.156 65.8129 184.156C64.9969 184.156 64.3609 184.414 63.9049 184.93C63.4609 185.434 63.2209 186.112 63.1849 186.964H61.6009C61.6489 185.62 62.0569 184.582 62.8249 183.85C63.5929 183.118 64.5829 182.752 65.7949 182.752C67.0309 182.752 68.0089 183.094 68.7289 183.778C69.4609 184.462 69.8269 185.404 69.8269 186.604C69.8269 187.6 69.5269 188.572 68.9269 189.52C68.3389 190.456 67.6669 191.284 66.9109 192.004C66.1549 192.712 65.1889 193.54 64.0129 194.488H70.2049V195.856H61.5469V194.686ZM80.3964 184.408H74.0784V188.512C74.3544 188.128 74.7624 187.816 75.3024 187.576C75.8424 187.324 76.4244 187.198 77.0484 187.198C78.0444 187.198 78.8544 187.408 79.4784 187.828C80.1024 188.236 80.5464 188.77 80.8104 189.43C81.0864 190.078 81.2244 190.768 81.2244 191.5C81.2244 192.364 81.0624 193.138 80.7384 193.822C80.4144 194.506 79.9164 195.046 79.2444 195.442C78.5844 195.838 77.7624 196.036 76.7784 196.036C75.5184 196.036 74.4984 195.712 73.7184 195.064C72.9384 194.416 72.4644 193.552 72.2964 192.472H73.8984C74.0544 193.156 74.3844 193.69 74.8884 194.074C75.3924 194.458 76.0284 194.65 76.7964 194.65C77.7444 194.65 78.4584 194.368 78.9384 193.804C79.4184 193.228 79.6584 192.472 79.6584 191.536C79.6584 190.6 79.4184 189.88 78.9384 189.376C78.4584 188.86 77.7504 188.602 76.8144 188.602C76.1784 188.602 75.6204 188.758 75.1404 189.07C74.6724 189.37 74.3304 189.784 74.1144 190.312H72.5664V182.968H80.3964V184.408Z" fill="white"/>
<path d="M38.312 174C38.184 174 38.08 173.968 38 173.904C37.928 173.832 37.876 173.748 37.844 173.652L35.324 165.96C35.316 165.92 35.312 165.884 35.312 165.852C35.312 165.788 35.336 165.732 35.384 165.684C35.432 165.628 35.492 165.6 35.564 165.6H36.824C36.944 165.6 37.036 165.636 37.1 165.708C37.172 165.772 37.216 165.832 37.232 165.888L39.104 171.756L40.964 165.888C40.988 165.832 41.032 165.772 41.096 165.708C41.16 165.636 41.252 165.6 41.372 165.6H42.632C42.704 165.6 42.764 165.628 42.812 165.684C42.86 165.732 42.884 165.788 42.884 165.852C42.884 165.884 42.88 165.92 42.872 165.96L40.352 173.652C40.328 173.748 40.276 173.832 40.196 173.904C40.124 173.968 40.02 174 39.884 174H38.312ZM42.9429 174C42.8709 174 42.8109 173.976 42.7629 173.928C42.7149 173.872 42.6909 173.812 42.6909 173.748C42.6909 173.708 42.6949 173.672 42.7029 173.64L45.5589 165.924C45.5829 165.836 45.6309 165.76 45.7029 165.696C45.7749 165.632 45.8749 165.6 46.0029 165.6H47.5389C47.6669 165.6 47.7669 165.632 47.8389 165.696C47.9109 165.76 47.9589 165.836 47.9829 165.924L50.8389 173.64C50.8469 173.672 50.8509 173.708 50.8509 173.748C50.8509 173.812 50.8269 173.872 50.7789 173.928C50.7309 173.976 50.6709 174 50.5989 174H49.3509C49.2309 174 49.1429 173.972 49.0869 173.916C49.0309 173.86 48.9949 173.808 48.9789 173.76L48.4629 172.416H45.0789L44.5629 173.76C44.5469 173.808 44.5109 173.86 44.4549 173.916C44.3989 173.972 44.3109 174 44.1909 174H42.9429ZM45.5229 170.868H48.0069L46.7709 167.412L45.5229 170.868ZM52.1841 174C52.0961 174 52.0241 173.972 51.9681 173.916C51.9121 173.86 51.8841 173.788 51.8841 173.7V165.9C51.8841 165.812 51.9121 165.74 51.9681 165.684C52.0241 165.628 52.0961 165.6 52.1841 165.6H53.5161C53.6041 165.6 53.6761 165.628 53.7321 165.684C53.7881 165.74 53.8161 165.812 53.8161 165.9V172.392H57.5361C57.6241 172.392 57.6961 172.42 57.7521 172.476C57.8081 172.532 57.8361 172.604 57.8361 172.692V173.7C57.8361 173.788 57.8081 173.86 57.7521 173.916C57.6961 173.972 57.6241 174 57.5361 174H52.1841ZM59.2388 174C59.1508 174 59.0788 173.972 59.0228 173.916C58.9668 173.86 58.9388 173.788 58.9388 173.7V165.9C58.9388 165.812 58.9668 165.74 59.0228 165.684C59.0788 165.628 59.1508 165.6 59.2388 165.6H60.5948C60.6828 165.6 60.7548 165.628 60.8108 165.684C60.8668 165.74 60.8948 165.812 60.8948 165.9V173.7C60.8948 173.788 60.8668 173.86 60.8108 173.916C60.7548 173.972 60.6828 174 60.5948 174H59.2388ZM62.9653 174C62.8773 174 62.8053 173.972 62.7493 173.916C62.6933 173.86 62.6653 173.788 62.6653 173.7V165.9C62.6653 165.812 62.6933 165.74 62.7493 165.684C62.8053 165.628 62.8773 165.6 62.9653 165.6H65.9773C66.7773 165.6 67.4453 165.728 67.9813 165.984C68.5173 166.232 68.9253 166.6 69.2053 167.088C69.4933 167.568 69.6453 168.164 69.6613 168.876C69.6693 169.228 69.6733 169.536 69.6733 169.8C69.6733 170.064 69.6693 170.368 69.6613 170.712C69.6373 171.456 69.4893 172.072 69.2173 172.56C68.9453 173.048 68.5453 173.412 68.0173 173.652C67.4893 173.884 66.8293 174 66.0373 174H62.9653ZM64.5733 172.452H65.9773C66.3773 172.452 66.7053 172.392 66.9613 172.272C67.2173 172.152 67.4053 171.964 67.5253 171.708C67.6533 171.444 67.7213 171.104 67.7293 170.688C67.7373 170.456 67.7413 170.248 67.7413 170.064C67.7493 169.88 67.7493 169.696 67.7413 169.512C67.7413 169.328 67.7373 169.124 67.7293 168.9C67.7133 168.3 67.5573 167.86 67.2613 167.58C66.9733 167.292 66.5253 167.148 65.9173 167.148H64.5733V172.452Z" fill="white"/>
<path d="M40.5163 90.87C39.5136 90.87 38.6603 90.7046 37.9563 90.374C37.2629 90.0326 36.7243 89.542 36.3403 88.902C35.9563 88.2513 35.7429 87.462 35.7003 86.534C35.6896 86.0966 35.6843 85.6273 35.6843 85.126C35.6843 84.6246 35.6896 84.1446 35.7003 83.686C35.7429 82.7686 35.9563 81.99 36.3403 81.35C36.7349 80.6993 37.2843 80.2033 37.9883 79.862C38.6923 79.5206 39.5349 79.35 40.5163 79.35C41.2309 79.35 41.8816 79.4406 42.4683 79.622C43.0549 79.8033 43.5616 80.0646 43.9883 80.406C44.4149 80.7473 44.7456 81.1473 44.9803 81.606C45.2149 82.0646 45.3429 82.5766 45.3643 83.142C45.3643 83.238 45.3269 83.318 45.2523 83.382C45.1883 83.446 45.1083 83.478 45.0123 83.478H43.1883C43.0603 83.478 42.9589 83.446 42.8843 83.382C42.8096 83.318 42.7509 83.2113 42.7083 83.062C42.5483 82.4326 42.2816 82.0006 41.9083 81.766C41.5349 81.5313 41.0709 81.414 40.5163 81.414C39.8549 81.414 39.3323 81.5953 38.9483 81.958C38.5643 82.3206 38.3563 82.9233 38.3243 83.766C38.2923 84.6406 38.2923 85.5366 38.3243 86.454C38.3563 87.2966 38.5643 87.8993 38.9483 88.262C39.3323 88.6246 39.8549 88.806 40.5163 88.806C41.0709 88.806 41.5349 88.6886 41.9083 88.454C42.2923 88.2086 42.5589 87.7766 42.7083 87.158C42.7509 86.998 42.8096 86.8913 42.8843 86.838C42.9589 86.774 43.0603 86.742 43.1883 86.742H45.0123C45.1083 86.742 45.1883 86.774 45.2523 86.838C45.3269 86.902 45.3643 86.982 45.3643 87.078C45.3429 87.6433 45.2149 88.1553 44.9803 88.614C44.7456 89.0726 44.4149 89.4726 43.9883 89.814C43.5616 90.1553 43.0549 90.4166 42.4683 90.598C41.8816 90.7793 41.2309 90.87 40.5163 90.87ZM46.3654 90.71C46.2694 90.71 46.1894 90.678 46.1254 90.614C46.0614 90.5393 46.0294 90.4593 46.0294 90.374C46.0294 90.3206 46.0347 90.2726 46.0454 90.23L49.8534 79.942C49.8854 79.8246 49.9494 79.7233 50.0454 79.638C50.1414 79.5526 50.2747 79.51 50.4454 79.51H52.4934C52.6641 79.51 52.7974 79.5526 52.8934 79.638C52.9894 79.7233 53.0534 79.8246 53.0854 79.942L56.8934 90.23C56.9041 90.2726 56.9094 90.3206 56.9094 90.374C56.9094 90.4593 56.8774 90.5393 56.8134 90.614C56.7494 90.678 56.6694 90.71 56.5734 90.71H54.9094C54.7494 90.71 54.6321 90.6726 54.5574 90.598C54.4827 90.5233 54.4347 90.454 54.4134 90.39L53.7254 88.598H49.2134L48.5254 90.39C48.5041 90.454 48.4561 90.5233 48.3814 90.598C48.3067 90.6726 48.1894 90.71 48.0294 90.71H46.3654ZM49.8054 86.534H53.1174L51.4694 81.926L49.8054 86.534ZM58.687 90.71C58.5697 90.71 58.4737 90.6726 58.399 90.598C58.3244 90.5233 58.287 90.4273 58.287 90.31V79.91C58.287 79.7926 58.3244 79.6966 58.399 79.622C58.4737 79.5473 58.5697 79.51 58.687 79.51H62.927C64.2604 79.51 65.311 79.8193 66.079 80.438C66.847 81.046 67.231 81.926 67.231 83.078C67.231 83.8566 67.0444 84.5073 66.671 85.03C66.2977 85.5526 65.7964 85.942 65.167 86.198L67.423 90.198C67.455 90.262 67.471 90.3206 67.471 90.374C67.471 90.4593 67.439 90.5393 67.375 90.614C67.311 90.678 67.231 90.71 67.135 90.71H65.359C65.167 90.71 65.023 90.662 64.927 90.566C64.831 90.4593 64.7617 90.3633 64.719 90.278L62.767 86.614H60.831V90.31C60.831 90.4273 60.7937 90.5233 60.719 90.598C60.6444 90.6726 60.5484 90.71 60.431 90.71H58.687ZM60.831 84.582H62.879C63.4657 84.582 63.8977 84.4486 64.175 84.182C64.463 83.9153 64.607 83.542 64.607 83.062C64.607 82.582 64.4684 82.2033 64.191 81.926C63.9137 81.6486 63.4764 81.51 62.879 81.51H60.831V84.582ZM69.5933 90.71C69.4759 90.71 69.3799 90.6726 69.3053 90.598C69.2306 90.5233 69.1933 90.4273 69.1933 90.31V79.91C69.1933 79.7926 69.2306 79.6966 69.3053 79.622C69.3799 79.5473 69.4759 79.51 69.5933 79.51H73.6093C74.6759 79.51 75.5666 79.6806 76.2813 80.022C76.9959 80.3526 77.5399 80.8433 77.9133 81.494C78.2973 82.134 78.4999 82.9286 78.5213 83.878C78.5319 84.3473 78.5373 84.758 78.5373 85.11C78.5373 85.462 78.5319 85.8673 78.5213 86.326C78.4893 87.318 78.2919 88.1393 77.9293 88.79C77.5666 89.4406 77.0333 89.926 76.3293 90.246C75.6253 90.5553 74.7453 90.71 73.6893 90.71H69.5933ZM71.7373 88.646H73.6093C74.1426 88.646 74.5799 88.566 74.9213 88.406C75.2626 88.246 75.5133 87.9953 75.6733 87.654C75.8439 87.302 75.9346 86.8486 75.9453 86.294C75.9559 85.9846 75.9613 85.7073 75.9613 85.462C75.9719 85.2166 75.9719 84.9713 75.9613 84.726C75.9613 84.4806 75.9559 84.2086 75.9453 83.91C75.9239 83.11 75.7159 82.5233 75.3213 82.15C74.9373 81.766 74.3399 81.574 73.5293 81.574H71.7373V88.646ZM84.4683 90.71C84.3509 90.71 84.2549 90.6726 84.1803 90.598C84.1056 90.5233 84.0683 90.4273 84.0683 90.31V79.91C84.0683 79.7926 84.1056 79.6966 84.1803 79.622C84.2549 79.5473 84.3509 79.51 84.4683 79.51H85.9243C86.0843 79.51 86.2016 79.5473 86.2763 79.622C86.3509 79.6966 86.3989 79.7553 86.4203 79.798L90.6923 86.47V79.91C90.6923 79.7926 90.7296 79.6966 90.8043 79.622C90.8789 79.5473 90.9696 79.51 91.0763 79.51H92.7083C92.8256 79.51 92.9216 79.5473 92.9963 79.622C93.0709 79.6966 93.1083 79.7926 93.1083 79.91V90.31C93.1083 90.4166 93.0709 90.5126 92.9963 90.598C92.9216 90.6726 92.8256 90.71 92.7083 90.71H91.2363C91.0763 90.71 90.9589 90.6726 90.8843 90.598C90.8203 90.5126 90.7723 90.454 90.7403 90.422L86.4843 83.958V90.31C86.4843 90.4273 86.4469 90.5233 86.3723 90.598C86.2976 90.6726 86.2016 90.71 86.0843 90.71H84.4683ZM100.051 90.87C99.1119 90.87 98.2905 90.7153 97.5865 90.406C96.8825 90.086 96.3385 89.6006 95.9545 88.95C95.5705 88.2886 95.3785 87.4513 95.3785 86.438V79.91C95.3785 79.7926 95.4159 79.6966 95.4905 79.622C95.5652 79.5473 95.6612 79.51 95.7785 79.51H97.5225C97.6399 79.51 97.7359 79.5473 97.8105 79.622C97.8852 79.6966 97.9225 79.7926 97.9225 79.91V86.422C97.9225 87.2113 98.1092 87.798 98.4825 88.182C98.8559 88.566 99.3785 88.758 100.051 88.758C100.712 88.758 101.229 88.566 101.603 88.182C101.976 87.798 102.163 87.2113 102.163 86.422V79.91C102.163 79.7926 102.2 79.6966 102.275 79.622C102.36 79.5473 102.456 79.51 102.563 79.51H104.323C104.429 79.51 104.52 79.5473 104.595 79.622C104.669 79.6966 104.707 79.7926 104.707 79.91V86.438C104.707 87.4513 104.515 88.2886 104.131 88.95C103.747 89.6006 103.208 90.086 102.515 90.406C101.821 90.7153 101 90.87 100.051 90.87ZM107.375 90.71C107.268 90.71 107.172 90.6726 107.087 90.598C107.012 90.5233 106.975 90.4273 106.975 90.31V79.91C106.975 79.7926 107.012 79.6966 107.087 79.622C107.172 79.5473 107.268 79.51 107.375 79.51H108.863C109.023 79.51 109.14 79.5526 109.215 79.638C109.3 79.7233 109.359 79.7873 109.391 79.83L112.335 85.254L115.311 79.83C115.332 79.7873 115.38 79.7233 115.455 79.638C115.54 79.5526 115.663 79.51 115.823 79.51H117.311C117.428 79.51 117.524 79.5473 117.599 79.622C117.673 79.6966 117.711 79.7926 117.711 79.91V90.31C117.711 90.4273 117.673 90.5233 117.599 90.598C117.524 90.6726 117.428 90.71 117.311 90.71H115.679C115.572 90.71 115.481 90.6726 115.407 90.598C115.332 90.5233 115.295 90.4273 115.295 90.31V83.846L113.263 87.654C113.209 87.75 113.14 87.8353 113.055 87.91C112.969 87.9846 112.857 88.022 112.719 88.022H111.967C111.828 88.022 111.716 87.9846 111.631 87.91C111.545 87.8353 111.476 87.75 111.423 87.654L109.391 83.846V90.31C109.391 90.4273 109.353 90.5233 109.279 90.598C109.204 90.6726 109.113 90.71 109.007 90.71H107.375ZM120.484 90.71C120.367 90.71 120.271 90.6726 120.196 90.598C120.121 90.5233 120.084 90.4273 120.084 90.31V79.91C120.084 79.7926 120.121 79.6966 120.196 79.622C120.271 79.5473 120.367 79.51 120.484 79.51H125.236C126.121 79.51 126.847 79.638 127.412 79.894C127.977 80.15 128.393 80.5126 128.66 80.982C128.937 81.4513 129.076 82.0006 129.076 82.63C129.076 83.0246 129.001 83.3713 128.852 83.67C128.713 83.9686 128.537 84.214 128.324 84.406C128.121 84.598 127.924 84.742 127.732 84.838C128.148 85.03 128.511 85.35 128.82 85.798C129.14 86.2353 129.3 86.758 129.3 87.366C129.3 88.038 129.151 88.6246 128.852 89.126C128.553 89.6273 128.111 90.0166 127.524 90.294C126.937 90.5713 126.223 90.71 125.38 90.71H120.484ZM122.628 88.838H125.076C125.599 88.838 125.993 88.694 126.26 88.406C126.527 88.1073 126.66 87.7553 126.66 87.35C126.66 86.934 126.521 86.5873 126.244 86.31C125.977 86.022 125.588 85.878 125.076 85.878H122.628V88.838ZM122.628 84.038H124.932C125.433 84.038 125.807 83.9153 126.052 83.67C126.308 83.414 126.436 83.0886 126.436 82.694C126.436 82.2993 126.308 81.9846 126.052 81.75C125.807 81.5046 125.433 81.382 124.932 81.382H122.628V84.038ZM131.609 90.71C131.492 90.71 131.396 90.6726 131.321 90.598C131.246 90.5233 131.209 90.4273 131.209 90.31V79.91C131.209 79.7926 131.246 79.6966 131.321 79.622C131.396 79.5473 131.492 79.51 131.609 79.51H138.857C138.974 79.51 139.07 79.5473 139.145 79.622C139.22 79.6966 139.257 79.7926 139.257 79.91V81.19C139.257 81.2966 139.22 81.3873 139.145 81.462C139.07 81.5366 138.974 81.574 138.857 81.574H133.673V84.086H138.505C138.622 84.086 138.718 84.1233 138.793 84.198C138.868 84.2726 138.905 84.3686 138.905 84.486V85.67C138.905 85.7766 138.868 85.8673 138.793 85.942C138.718 86.0166 138.622 86.054 138.505 86.054H133.673V88.646H138.985C139.102 88.646 139.198 88.6833 139.273 88.758C139.348 88.8326 139.385 88.9286 139.385 89.046V90.31C139.385 90.4273 139.348 90.5233 139.273 90.598C139.198 90.6726 139.102 90.71 138.985 90.71H131.609ZM141.687 90.71C141.57 90.71 141.474 90.6726 141.399 90.598C141.324 90.5233 141.287 90.4273 141.287 90.31V79.91C141.287 79.7926 141.324 79.6966 141.399 79.622C141.474 79.5473 141.57 79.51 141.687 79.51H145.927C147.26 79.51 148.311 79.8193 149.079 80.438C149.847 81.046 150.231 81.926 150.231 83.078C150.231 83.8566 150.044 84.5073 149.671 85.03C149.298 85.5526 148.796 85.942 148.167 86.198L150.423 90.198C150.455 90.262 150.471 90.3206 150.471 90.374C150.471 90.4593 150.439 90.5393 150.375 90.614C150.311 90.678 150.231 90.71 150.135 90.71H148.359C148.167 90.71 148.023 90.662 147.927 90.566C147.831 90.4593 147.762 90.3633 147.719 90.278L145.767 86.614H143.831V90.31C143.831 90.4273 143.794 90.5233 143.719 90.598C143.644 90.6726 143.548 90.71 143.431 90.71H141.687ZM143.831 84.582H145.879C146.466 84.582 146.898 84.4486 147.175 84.182C147.463 83.9153 147.607 83.542 147.607 83.062C147.607 82.582 147.468 82.2033 147.191 81.926C146.914 81.6486 146.476 81.51 145.879 81.51H143.831V84.582Z" fill="white"/>
<path d="M155.224 174.12C154.472 174.12 153.832 173.996 153.304 173.748C152.784 173.492 152.38 173.124 152.092 172.644C151.804 172.156 151.644 171.564 151.612 170.868C151.604 170.54 151.6 170.188 151.6 169.812C151.6 169.436 151.604 169.076 151.612 168.732C151.644 168.044 151.804 167.46 152.092 166.98C152.388 166.492 152.8 166.12 153.328 165.864C153.856 165.608 154.488 165.48 155.224 165.48C155.76 165.48 156.248 165.548 156.688 165.684C157.128 165.82 157.508 166.016 157.828 166.272C158.148 166.528 158.396 166.828 158.572 167.172C158.748 167.516 158.844 167.9 158.86 168.324C158.86 168.396 158.832 168.456 158.776 168.504C158.728 168.552 158.668 168.576 158.596 168.576H157.228C157.132 168.576 157.056 168.552 157 168.504C156.944 168.456 156.9 168.376 156.868 168.264C156.748 167.792 156.548 167.468 156.268 167.292C155.988 167.116 155.64 167.028 155.224 167.028C154.728 167.028 154.336 167.164 154.048 167.436C153.76 167.708 153.604 168.16 153.58 168.792C153.556 169.448 153.556 170.12 153.58 170.808C153.604 171.44 153.76 171.892 154.048 172.164C154.336 172.436 154.728 172.572 155.224 172.572C155.64 172.572 155.988 172.484 156.268 172.308C156.556 172.124 156.756 171.8 156.868 171.336C156.9 171.216 156.944 171.136 157 171.096C157.056 171.048 157.132 171.024 157.228 171.024H158.596C158.668 171.024 158.728 171.048 158.776 171.096C158.832 171.144 158.86 171.204 158.86 171.276C158.844 171.7 158.748 172.084 158.572 172.428C158.396 172.772 158.148 173.072 157.828 173.328C157.508 173.584 157.128 173.78 156.688 173.916C156.248 174.052 155.76 174.12 155.224 174.12ZM162.421 174C162.293 174 162.189 173.968 162.109 173.904C162.037 173.832 161.985 173.748 161.953 173.652L159.433 165.96C159.425 165.92 159.421 165.884 159.421 165.852C159.421 165.788 159.445 165.732 159.493 165.684C159.541 165.628 159.601 165.6 159.673 165.6H160.933C161.053 165.6 161.145 165.636 161.209 165.708C161.281 165.772 161.325 165.832 161.341 165.888L163.213 171.756L165.073 165.888C165.097 165.832 165.141 165.772 165.205 165.708C165.269 165.636 165.361 165.6 165.481 165.6H166.741C166.813 165.6 166.873 165.628 166.921 165.684C166.969 165.732 166.993 165.788 166.993 165.852C166.993 165.884 166.989 165.92 166.981 165.96L164.461 173.652C164.437 173.748 164.385 173.832 164.305 173.904C164.233 173.968 164.129 174 163.993 174H162.421ZM170.613 174C170.485 174 170.381 173.968 170.301 173.904C170.229 173.832 170.177 173.748 170.145 173.652L167.625 165.96C167.617 165.92 167.613 165.884 167.613 165.852C167.613 165.788 167.637 165.732 167.685 165.684C167.733 165.628 167.793 165.6 167.865 165.6H169.125C169.245 165.6 169.337 165.636 169.401 165.708C169.473 165.772 169.517 165.832 169.533 165.888L171.405 171.756L173.265 165.888C173.289 165.832 173.333 165.772 173.397 165.708C173.461 165.636 173.553 165.6 173.673 165.6H174.933C175.005 165.6 175.065 165.628 175.113 165.684C175.161 165.732 175.185 165.788 175.185 165.852C175.185 165.884 175.181 165.92 175.173 165.96L172.653 173.652C172.629 173.748 172.577 173.832 172.497 173.904C172.425 173.968 172.321 174 172.185 174H170.613Z" fill="white"/>
<path d="M152.08 186.262C152.164 185.158 152.59 184.294 153.358 183.67C154.126 183.046 155.122 182.734 156.346 182.734C157.162 182.734 157.864 182.884 158.452 183.184C159.052 183.472 159.502 183.868 159.802 184.372C160.114 184.876 160.27 185.446 160.27 186.082C160.27 186.826 160.054 187.468 159.622 188.008C159.202 188.548 158.65 188.896 157.966 189.052V189.142C158.746 189.334 159.364 189.712 159.82 190.276C160.276 190.84 160.504 191.578 160.504 192.49C160.504 193.174 160.348 193.792 160.036 194.344C159.724 194.884 159.256 195.31 158.632 195.622C158.008 195.934 157.258 196.09 156.382 196.09C155.11 196.09 154.066 195.76 153.25 195.1C152.434 194.428 151.978 193.48 151.882 192.256H153.466C153.55 192.976 153.844 193.564 154.348 194.02C154.852 194.476 155.524 194.704 156.364 194.704C157.204 194.704 157.84 194.488 158.272 194.056C158.716 193.612 158.938 193.042 158.938 192.346C158.938 191.446 158.638 190.798 158.038 190.402C157.438 190.006 156.532 189.808 155.32 189.808H154.906V188.44H155.338C156.442 188.428 157.276 188.248 157.84 187.9C158.404 187.54 158.686 186.988 158.686 186.244C158.686 185.608 158.476 185.098 158.056 184.714C157.648 184.33 157.06 184.138 156.292 184.138C155.548 184.138 154.948 184.33 154.492 184.714C154.036 185.098 153.766 185.614 153.682 186.262H152.08ZM162.32 193.102V191.86L168.638 183.112H170.6V191.68H172.4V193.102H170.6V196H168.98V193.102H162.32ZM169.052 184.822L164.21 191.68H169.052V184.822ZM182.334 184.408H176.016V188.512C176.292 188.128 176.7 187.816 177.24 187.576C177.78 187.324 178.362 187.198 178.986 187.198C179.982 187.198 180.792 187.408 181.416 187.828C182.04 188.236 182.484 188.77 182.748 189.43C183.024 190.078 183.162 190.768 183.162 191.5C183.162 192.364 183 193.138 182.676 193.822C182.352 194.506 181.854 195.046 181.182 195.442C180.522 195.838 179.7 196.036 178.716 196.036C177.456 196.036 176.436 195.712 175.656 195.064C174.876 194.416 174.402 193.552 174.234 192.472H175.836C175.992 193.156 176.322 193.69 176.826 194.074C177.33 194.458 177.966 194.65 178.734 194.65C179.682 194.65 180.396 194.368 180.876 193.804C181.356 193.228 181.596 192.472 181.596 191.536C181.596 190.6 181.356 189.88 180.876 189.376C180.396 188.86 179.688 188.602 178.752 188.602C178.116 188.602 177.558 188.758 177.078 189.07C176.61 189.37 176.268 189.784 176.052 190.312H174.504V182.968H182.334V184.408Z" fill="white"/>
<path d="M40.9297 111.001L41.0888 106.626L37.39 108.973L36.4354 107.302L40.3331 105.274L36.4354 103.245L37.39 101.575L41.0888 103.922L40.9297 99.5465H42.8388L42.6797 103.922L46.3786 101.575L47.3331 103.245L43.4354 105.274L47.3331 107.302L46.3786 108.973L42.6797 106.626L42.8388 111.001H40.9297ZM54.9297 111.001L55.0888 106.626L51.39 108.973L50.4354 107.302L54.3331 105.274L50.4354 103.245L51.39 101.575L55.0888 103.922L54.9297 99.5465H56.8388L56.6797 103.922L60.3786 101.575L61.3331 103.245L57.4354 105.274L61.3331 107.302L60.3786 108.973L56.6797 106.626L56.8388 111.001H54.9297ZM68.9297 111.001L69.0888 106.626L65.39 108.973L64.4354 107.302L68.3331 105.274L64.4354 103.245L65.39 101.575L69.0888 103.922L68.9297 99.5465H70.8388L70.6797 103.922L74.3786 101.575L75.3331 103.245L71.4354 105.274L75.3331 107.302L74.3786 108.973L70.6797 106.626L70.8388 111.001H68.9297ZM82.9297 111.001L83.0888 106.626L79.39 108.973L78.4354 107.302L82.3331 105.274L78.4354 103.245L79.39 101.575L83.0888 103.922L82.9297 99.5465H84.8388L84.6797 103.922L88.3786 101.575L89.3331 103.245L85.4354 105.274L89.3331 107.302L88.3786 108.973L84.6797 106.626L84.8388 111.001H82.9297ZM104.805 111.001L104.964 106.626L101.265 108.973L100.31 107.302L104.208 105.274L100.31 103.245L101.265 101.575L104.964 103.922L104.805 99.5465H106.714L106.555 103.922L110.254 101.575L111.208 103.245L107.31 105.274L111.208 107.302L110.254 108.973L106.555 106.626L106.714 111.001H104.805ZM118.805 111.001L118.964 106.626L115.265 108.973L114.31 107.302L118.208 105.274L114.31 103.245L115.265 101.575L118.964 103.922L118.805 99.5465H120.714L120.555 103.922L124.254 101.575L125.208 103.245L121.31 105.274L125.208 107.302L124.254 108.973L120.555 106.626L120.714 111.001H118.805ZM132.805 111.001L132.964 106.626L129.265 108.973L128.31 107.302L132.208 105.274L128.31 103.245L129.265 101.575L132.964 103.922L132.805 99.5465H134.714L134.555 103.922L138.254 101.575L139.208 103.245L135.31 105.274L139.208 107.302L138.254 108.973L134.555 106.626L134.714 111.001H132.805ZM146.805 111.001L146.964 106.626L143.265 108.973L142.31 107.302L146.208 105.274L142.31 103.245L143.265 101.575L146.964 103.922L146.805 99.5465H148.714L148.555 103.922L152.254 101.575L153.208 103.245L149.31 105.274L153.208 107.302L152.254 108.973L148.555 106.626L148.714 111.001H146.805ZM168.68 111.001L168.839 106.626L165.14 108.973L164.185 107.302L168.083 105.274L164.185 103.245L165.14 101.575L168.839 103.922L168.68 99.5465H170.589L170.43 103.922L174.129 101.575L175.083 103.245L171.185 105.274L175.083 107.302L174.129 108.973L170.43 106.626L170.589 111.001H168.68ZM182.68 111.001L182.839 106.626L179.14 108.973L178.185 107.302L182.083 105.274L178.185 103.245L179.14 101.575L182.839 103.922L182.68 99.5465H184.589L184.43 103.922L188.129 101.575L189.083 103.245L185.185 105.274L189.083 107.302L188.129 108.973L184.43 106.626L184.589 111.001H182.68ZM196.68 111.001L196.839 106.626L193.14 108.973L192.185 107.302L196.083 105.274L192.185 103.245L193.14 101.575L196.839 103.922L196.68 99.5465H198.589L198.43 103.922L202.129 101.575L203.083 103.245L199.185 105.274L203.083 107.302L202.129 108.973L198.43 106.626L198.589 111.001H196.68ZM210.68 111.001L210.839 106.626L207.14 108.973L206.185 107.302L210.083 105.274L206.185 103.245L207.14 101.575L210.839 103.922L210.68 99.5465H212.589L212.43 103.922L216.129 101.575L217.083 103.245L213.185 105.274L217.083 107.302L216.129 108.973L212.43 106.626L212.589 111.001H210.68ZM235.776 99.5465V119.91H233.31V102.132H233.191L228.22 105.433V102.927L233.31 99.5465H235.776ZM241.633 119.91V118.12L248.354 110.762C249.143 109.901 249.793 109.152 250.303 108.515C250.814 107.872 251.192 107.269 251.437 106.706C251.689 106.136 251.815 105.539 251.815 104.916C251.815 104.2 251.642 103.58 251.298 103.056C250.96 102.533 250.496 102.128 249.906 101.843C249.316 101.558 248.653 101.416 247.917 101.416C247.135 101.416 246.452 101.578 245.869 101.903C245.292 102.221 244.845 102.669 244.526 103.245C244.215 103.822 244.059 104.498 244.059 105.274H241.712C241.712 104.081 241.987 103.033 242.538 102.132C243.088 101.23 243.837 100.528 244.785 100.024C245.739 99.52 246.81 99.2681 247.996 99.2681C249.19 99.2681 250.247 99.52 251.168 100.024C252.09 100.528 252.812 101.207 253.336 102.062C253.86 102.917 254.121 103.868 254.121 104.916C254.121 105.665 253.986 106.397 253.714 107.113C253.449 107.823 252.985 108.615 252.322 109.49C251.666 110.358 250.754 111.419 249.587 112.672L245.014 117.564V117.723H254.479V119.91H241.633ZM265.467 120.189C264.154 120.189 262.984 119.963 261.957 119.512C260.936 119.062 260.124 118.435 259.521 117.633C258.924 116.824 258.599 115.886 258.546 114.819H261.052C261.105 115.475 261.33 116.042 261.728 116.52C262.126 116.99 262.646 117.355 263.289 117.613C263.932 117.872 264.645 118.001 265.427 118.001C266.302 118.001 267.077 117.849 267.754 117.544C268.43 117.239 268.96 116.815 269.345 116.271C269.729 115.727 269.921 115.098 269.921 114.382C269.921 113.633 269.736 112.973 269.364 112.403C268.993 111.826 268.45 111.376 267.734 111.051C267.018 110.726 266.143 110.564 265.109 110.564H263.478V108.376H265.109C265.917 108.376 266.627 108.23 267.237 107.939C267.853 107.647 268.334 107.236 268.678 106.706C269.03 106.175 269.205 105.552 269.205 104.836C269.205 104.147 269.053 103.547 268.748 103.037C268.443 102.526 268.012 102.128 267.455 101.843C266.905 101.558 266.255 101.416 265.506 101.416C264.804 101.416 264.141 101.545 263.518 101.804C262.901 102.056 262.398 102.423 262.006 102.907C261.615 103.385 261.403 103.961 261.37 104.637H258.984C259.023 103.57 259.345 102.636 259.948 101.833C260.551 101.025 261.34 100.395 262.315 99.9442C263.296 99.4935 264.373 99.2681 265.546 99.2681C266.806 99.2681 267.886 99.5233 268.788 100.034C269.689 100.538 270.382 101.204 270.866 102.032C271.35 102.861 271.592 103.756 271.592 104.717C271.592 105.864 271.29 106.842 270.687 107.65C270.09 108.459 269.278 109.019 268.251 109.331V109.49C269.537 109.702 270.541 110.249 271.264 111.13C271.986 112.005 272.347 113.089 272.347 114.382C272.347 115.489 272.046 116.483 271.443 117.365C270.846 118.24 270.031 118.929 268.996 119.433C267.962 119.937 266.786 120.189 265.467 120.189ZM275.937 115.734V113.706L284.886 99.5465H286.357V102.689H285.363L278.602 113.387V113.547H290.653V115.734H275.937ZM285.522 119.91V115.118V114.173V99.5465H287.869V119.91H285.522Z" fill="white"/>
<path d="M318.519 184.041C318.519 190.819 313.042 196.296 306.264 196.296C299.487 196.296 294.01 190.819 294.01 184.041C294.01 177.264 299.487 171.787 306.264 171.787C313.042 171.787 318.519 177.264 318.519 184.041Z" fill="white"/>
<path d="M336.387 184.041C336.387 190.819 330.91 196.296 324.132 196.296C317.355 196.296 311.878 190.819 311.878 184.041C311.878 177.264 317.355 171.787 324.132 171.787C330.91 171.787 336.387 177.264 336.387 184.041Z" fill="#AD00FF"/>
<defs>
<linearGradient id="paint0_linear_2_3005" x1="350.267" y1="112.796" x2="157.943" y2="112.796" gradientUnits="userSpaceOnUse">
<stop stop-color="#BF5BFF"/>
<stop offset="1" stop-color="#7900B2"/>
</linearGradient>
</defs>
</svg>
