<svg width="40" height="40" viewBox="0 0 40 40" fill="none" xmlns="http://www.w3.org/2000/svg">
<rect width="40" height="40" rx="20" fill="#3B319E" fill-opacity="0.9"/>
<path d="M13.5291 14.7031H12.3527C11.7288 14.7031 11.1303 14.951 10.6891 15.3924C10.2479 15.8337 10 16.4323 10 17.0565V27.6466C10 28.2708 10.2479 28.8694 10.6891 29.3107C11.1303 29.7521 11.7288 30 12.3527 30H22.9401C23.5641 30 24.1625 29.7521 24.6037 29.3107C25.0449 28.8694 25.2928 28.2708 25.2928 27.6466V26.47" stroke="white" stroke-width="2" stroke-linecap="round" stroke-linejoin="round"/>
<path d="M29.2768 14.2185C29.7401 13.7551 30.0004 13.1266 30.0004 12.4712C30.0004 11.8158 29.7401 11.1872 29.2768 10.7238C28.8135 10.2604 28.1851 10 27.5299 10C26.8746 10 26.2463 10.2604 25.783 10.7238L15.8838 20.5903V24.1204H19.4129L29.2768 14.2185Z" stroke="white" stroke-width="2" stroke-linecap="round" stroke-linejoin="round"/>
<path d="M24.1182 12.3477L27.6473 15.8777" stroke="white" stroke-width="2" stroke-linecap="round" stroke-linejoin="round"/>
</svg>
