<svg width="29" height="24" viewBox="0 0 29 24" fill="none" xmlns="http://www.w3.org/2000/svg">
<path d="M26.0187 10.0088H6.00432L12.5891 3.42405C12.7767 3.23799 12.9256 3.01663 13.0272 2.77274C13.1288 2.52884 13.1811 2.26724 13.1811 2.00303C13.1811 1.73881 13.1288 1.47721 13.0272 1.23332C12.9256 0.989426 12.7767 0.768064 12.5891 0.582004C12.2141 0.209234 11.7068 0 11.1781 0C10.6493 0 10.142 0.209234 9.76704 0.582004L1.18085 9.1882C0.429134 9.93544 0.0044688 10.9503 0 12.0102C0.00974019 13.0632 0.434002 14.0699 1.18085 14.8123L9.76704 23.4185C9.95365 23.6038 10.1749 23.7505 10.4182 23.8503C10.6616 23.95 10.9221 24.0009 11.1851 24C11.4481 23.9991 11.7083 23.9463 11.9509 23.8448C12.1935 23.7433 12.4138 23.5951 12.5991 23.4084C12.7844 23.2218 12.9311 23.0006 13.0309 22.7572C13.1307 22.5139 13.1815 22.2533 13.1806 21.9904C13.1797 21.7274 13.127 21.4672 13.0255 21.2246C12.924 20.9819 12.7757 20.7617 12.5891 20.5764L6.00432 14.0117H26.0187C26.5496 14.0117 27.0586 13.8008 27.434 13.4255C27.8093 13.0501 28.0202 12.5411 28.0202 12.0102C28.0202 11.4794 27.8093 10.9703 27.434 10.595C27.0586 10.2197 26.5496 10.0088 26.0187 10.0088Z" fill="white"/>
</svg>
