<svg width="42" height="42" viewBox="0 0 42 42" fill="none" xmlns="http://www.w3.org/2000/svg">
<circle cx="21" cy="21" r="20.5" fill="white" stroke="#E1E1E1"/>
<path d="M11 29.4V27.6H13.52V18.42C13.52 16.74 14.015 15.245 15.005 13.935C15.995 12.625 17.3 11.8 18.92 11.46V10.59C18.92 10.13 19.085 9.75 19.415 9.45C19.745 9.15 20.14 9 20.6 9C21.06 9 21.455 9.15 21.785 9.45C22.115 9.75 22.28 10.13 22.28 10.59V11.46C23.9 11.8 25.21 12.625 26.21 13.935C27.21 15.245 27.71 16.74 27.71 18.42V27.6H30.2V29.4H11ZM20.6 33C19.96 33 19.4 32.765 18.92 32.295C18.44 31.825 18.2 31.26 18.2 30.6H23C23 31.26 22.765 31.825 22.295 32.295C21.825 32.765 21.26 33 20.6 33ZM15.32 27.6H25.91V18.42C25.91 16.94 25.4 15.68 24.38 14.64C23.36 13.6 22.11 13.08 20.63 13.08C19.15 13.08 17.895 13.6 16.865 14.64C15.835 15.68 15.32 16.94 15.32 18.42V27.6Z" fill="#1C1364"/>
<circle cx="26.3" cy="14.7" r="2.5" fill="#FF0000"/>
</svg>
