<svg width="24" height="24" viewBox="0 0 24 24" fill="none" xmlns="http://www.w3.org/2000/svg">
<path d="M10.7994 7.24L10.7993 7.23996L10.7919 7.24564L10.3594 7.57642V2.4V1.2V1H13.8794V1.2V2.4V7.57642L13.4468 7.24564L13.4469 7.24561L13.4394 7.24C13.0702 6.96312 12.6249 6.77 12.1194 6.77C11.6139 6.77 11.1685 6.96312 10.7994 7.24Z" stroke="white" stroke-width="2"/>
<path d="M5.10891 1H5.89112V1.2V2.4V12C5.89112 12.4129 5.99607 12.8193 6.23471 13.1808C6.45833 13.5197 6.76511 13.7677 7.10216 13.9463C7.95122 14.4749 8.87777 14.1079 9.35064 13.7895L9.37124 13.7756L9.39113 13.7607L12 11.8089L14.6089 13.7607L14.679 13.8132L14.7571 13.8526C14.7693 13.8588 14.7829 13.8658 14.7977 13.8734C14.9995 13.9769 15.4343 14.2 15.9208 14.2C15.9275 14.2 15.9346 14.2 15.942 14.2C16.0438 14.2002 16.2094 14.2005 16.3838 14.1711C16.5958 14.1354 16.7816 14.0656 16.9656 13.9727L17.0215 13.9444L17.0734 13.9095C17.661 13.5138 18.1089 12.8633 18.1089 12V2.4V1.2V1H18.8911C21.1809 1 23 2.82288 23 5.16V18.84C23 21.1771 21.1809 23 18.8911 23H5.10891C2.81907 23 1 21.1771 1 18.84V5.16C1 2.82288 2.81907 1 5.10891 1Z" stroke="white" stroke-width="2"/>
</svg>
