<svg width="18" height="24" viewBox="0 0 18 24" fill="none" xmlns="http://www.w3.org/2000/svg">
<mask id="path-1-inside-1_2_2558" fill="white">
<path d="M16.3125 4.46512H14.9062V3.90698C14.9062 3.29135 14.4017 2.7907 13.7812 2.7907H12.328C12.0594 1.20893 10.6695 0 9 0C7.3305 0 5.94056 1.20893 5.67197 2.7907H4.21875C3.59831 2.7907 3.09375 3.29135 3.09375 3.90698V4.46512H1.6875C0.756844 4.46512 0 5.21609 0 6.13953V22.3256C0 23.249 0.756844 24 1.6875 24H16.3125C17.2432 24 18 23.249 18 22.3256V6.13953C18 5.21609 17.2432 4.46512 16.3125 4.46512ZM4.21875 3.90698H6.1875C6.33668 3.90698 6.47976 3.84817 6.58525 3.7435C6.69074 3.63883 6.75 3.49687 6.75 3.34884C6.75 2.11786 7.75941 1.11628 9 1.11628C10.2406 1.11628 11.25 2.11786 11.25 3.34884C11.25 3.49687 11.3093 3.63883 11.4148 3.7435C11.5202 3.84817 11.6633 3.90698 11.8125 3.90698H13.7812V6.13953H4.21875V3.90698ZM16.875 22.3256C16.875 22.6334 16.6227 22.8837 16.3125 22.8837H1.6875C1.37728 22.8837 1.125 22.6334 1.125 22.3256V6.13953C1.125 5.83172 1.37728 5.5814 1.6875 5.5814H3.09375V6.13953C3.09375 6.75516 3.59831 7.25581 4.21875 7.25581H13.7812C14.4017 7.25581 14.9062 6.75516 14.9062 6.13953V5.5814H16.3125C16.6227 5.5814 16.875 5.83172 16.875 6.13953V22.3256ZM15.1875 10.6047C15.1875 10.7527 15.1282 10.8946 15.0227 10.9993C14.9173 11.104 14.7742 11.1628 14.625 11.1628H7.875C7.72582 11.1628 7.58274 11.104 7.47725 10.9993C7.37176 10.8946 7.3125 10.7527 7.3125 10.6047C7.3125 10.4566 7.37176 10.3147 7.47725 10.21C7.58274 10.1053 7.72582 10.0465 7.875 10.0465H14.625C14.7742 10.0465 14.9173 10.1053 15.0227 10.21C15.1282 10.3147 15.1875 10.4566 15.1875 10.6047ZM15.1875 15.0698C15.1875 15.2178 15.1282 15.3598 15.0227 15.4644C14.9173 15.5691 14.7742 15.6279 14.625 15.6279H7.875C7.72582 15.6279 7.58274 15.5691 7.47725 15.4644C7.37176 15.3598 7.3125 15.2178 7.3125 15.0698C7.3125 14.9217 7.37176 14.7798 7.47725 14.6751C7.58274 14.5704 7.72582 14.5116 7.875 14.5116H14.625C14.7742 14.5116 14.9173 14.5704 15.0227 14.6751C15.1282 14.7798 15.1875 14.9217 15.1875 15.0698ZM5.625 8.93023H3.375C3.22582 8.93023 3.08274 8.98904 2.97725 9.09371C2.87176 9.19838 2.8125 9.34034 2.8125 9.48837V11.7209C2.8125 11.869 2.87176 12.0109 2.97725 12.1156C3.08274 12.2203 3.22582 12.2791 3.375 12.2791H5.625C5.77418 12.2791 5.91726 12.2203 6.02275 12.1156C6.12824 12.0109 6.1875 11.869 6.1875 11.7209V9.48837C6.1875 9.34034 6.12824 9.19838 6.02275 9.09371C5.91726 8.98904 5.77418 8.93023 5.625 8.93023ZM5.0625 11.1628H3.9375V10.0465H5.0625V11.1628ZM5.625 13.3953H3.375C3.22582 13.3953 3.08274 13.4542 2.97725 13.5588C2.87176 13.6635 2.8125 13.8055 2.8125 13.9535V16.186C2.8125 16.3341 2.87176 16.476 2.97725 16.5807C3.08274 16.6854 3.22582 16.7442 3.375 16.7442H5.625C5.77418 16.7442 5.91726 16.6854 6.02275 16.5807C6.12824 16.476 6.1875 16.3341 6.1875 16.186V13.9535C6.1875 13.8055 6.12824 13.6635 6.02275 13.5588C5.91726 13.4542 5.77418 13.3953 5.625 13.3953ZM5.0625 15.6279H3.9375V14.5116H5.0625V15.6279ZM15.1875 19.5349C15.1875 19.6829 15.1282 19.8249 15.0227 19.9296C14.9173 20.0342 14.7742 20.093 14.625 20.093H7.875C7.72582 20.093 7.58274 20.0342 7.47725 19.9296C7.37176 19.8249 7.3125 19.6829 7.3125 19.5349C7.3125 19.3869 7.37176 19.2449 7.47725 19.1402C7.58274 19.0355 7.72582 18.9767 7.875 18.9767H14.625C14.7742 18.9767 14.9173 19.0355 15.0227 19.1402C15.1282 19.2449 15.1875 19.3869 15.1875 19.5349ZM5.625 17.8605H3.375C3.22582 17.8605 3.08274 17.9193 2.97725 18.0239C2.87176 18.1286 2.8125 18.2706 2.8125 18.4186V20.6512C2.8125 20.7992 2.87176 20.9412 2.97725 21.0458C3.08274 21.1505 3.22582 21.2093 3.375 21.2093H5.625C5.77418 21.2093 5.91726 21.1505 6.02275 21.0458C6.12824 20.9412 6.1875 20.7992 6.1875 20.6512V18.4186C6.1875 18.2706 6.12824 18.1286 6.02275 18.0239C5.91726 17.9193 5.77418 17.8605 5.625 17.8605ZM5.0625 20.093H3.9375V18.9767H5.0625V20.093Z"/>
</mask>
<path d="M16.3125 4.46512H14.9062V3.90698C14.9062 3.29135 14.4017 2.7907 13.7812 2.7907H12.328C12.0594 1.20893 10.6695 0 9 0C7.3305 0 5.94056 1.20893 5.67197 2.7907H4.21875C3.59831 2.7907 3.09375 3.29135 3.09375 3.90698V4.46512H1.6875C0.756844 4.46512 0 5.21609 0 6.13953V22.3256C0 23.249 0.756844 24 1.6875 24H16.3125C17.2432 24 18 23.249 18 22.3256V6.13953C18 5.21609 17.2432 4.46512 16.3125 4.46512ZM4.21875 3.90698H6.1875C6.33668 3.90698 6.47976 3.84817 6.58525 3.7435C6.69074 3.63883 6.75 3.49687 6.75 3.34884C6.75 2.11786 7.75941 1.11628 9 1.11628C10.2406 1.11628 11.25 2.11786 11.25 3.34884C11.25 3.49687 11.3093 3.63883 11.4148 3.7435C11.5202 3.84817 11.6633 3.90698 11.8125 3.90698H13.7812V6.13953H4.21875V3.90698ZM16.875 22.3256C16.875 22.6334 16.6227 22.8837 16.3125 22.8837H1.6875C1.37728 22.8837 1.125 22.6334 1.125 22.3256V6.13953C1.125 5.83172 1.37728 5.5814 1.6875 5.5814H3.09375V6.13953C3.09375 6.75516 3.59831 7.25581 4.21875 7.25581H13.7812C14.4017 7.25581 14.9062 6.75516 14.9062 6.13953V5.5814H16.3125C16.6227 5.5814 16.875 5.83172 16.875 6.13953V22.3256ZM15.1875 10.6047C15.1875 10.7527 15.1282 10.8946 15.0227 10.9993C14.9173 11.104 14.7742 11.1628 14.625 11.1628H7.875C7.72582 11.1628 7.58274 11.104 7.47725 10.9993C7.37176 10.8946 7.3125 10.7527 7.3125 10.6047C7.3125 10.4566 7.37176 10.3147 7.47725 10.21C7.58274 10.1053 7.72582 10.0465 7.875 10.0465H14.625C14.7742 10.0465 14.9173 10.1053 15.0227 10.21C15.1282 10.3147 15.1875 10.4566 15.1875 10.6047ZM15.1875 15.0698C15.1875 15.2178 15.1282 15.3598 15.0227 15.4644C14.9173 15.5691 14.7742 15.6279 14.625 15.6279H7.875C7.72582 15.6279 7.58274 15.5691 7.47725 15.4644C7.37176 15.3598 7.3125 15.2178 7.3125 15.0698C7.3125 14.9217 7.37176 14.7798 7.47725 14.6751C7.58274 14.5704 7.72582 14.5116 7.875 14.5116H14.625C14.7742 14.5116 14.9173 14.5704 15.0227 14.6751C15.1282 14.7798 15.1875 14.9217 15.1875 15.0698ZM5.625 8.93023H3.375C3.22582 8.93023 3.08274 8.98904 2.97725 9.09371C2.87176 9.19838 2.8125 9.34034 2.8125 9.48837V11.7209C2.8125 11.869 2.87176 12.0109 2.97725 12.1156C3.08274 12.2203 3.22582 12.2791 3.375 12.2791H5.625C5.77418 12.2791 5.91726 12.2203 6.02275 12.1156C6.12824 12.0109 6.1875 11.869 6.1875 11.7209V9.48837C6.1875 9.34034 6.12824 9.19838 6.02275 9.09371C5.91726 8.98904 5.77418 8.93023 5.625 8.93023ZM5.0625 11.1628H3.9375V10.0465H5.0625V11.1628ZM5.625 13.3953H3.375C3.22582 13.3953 3.08274 13.4542 2.97725 13.5588C2.87176 13.6635 2.8125 13.8055 2.8125 13.9535V16.186C2.8125 16.3341 2.87176 16.476 2.97725 16.5807C3.08274 16.6854 3.22582 16.7442 3.375 16.7442H5.625C5.77418 16.7442 5.91726 16.6854 6.02275 16.5807C6.12824 16.476 6.1875 16.3341 6.1875 16.186V13.9535C6.1875 13.8055 6.12824 13.6635 6.02275 13.5588C5.91726 13.4542 5.77418 13.3953 5.625 13.3953ZM5.0625 15.6279H3.9375V14.5116H5.0625V15.6279ZM15.1875 19.5349C15.1875 19.6829 15.1282 19.8249 15.0227 19.9296C14.9173 20.0342 14.7742 20.093 14.625 20.093H7.875C7.72582 20.093 7.58274 20.0342 7.47725 19.9296C7.37176 19.8249 7.3125 19.6829 7.3125 19.5349C7.3125 19.3869 7.37176 19.2449 7.47725 19.1402C7.58274 19.0355 7.72582 18.9767 7.875 18.9767H14.625C14.7742 18.9767 14.9173 19.0355 15.0227 19.1402C15.1282 19.2449 15.1875 19.3869 15.1875 19.5349ZM5.625 17.8605H3.375C3.22582 17.8605 3.08274 17.9193 2.97725 18.0239C2.87176 18.1286 2.8125 18.2706 2.8125 18.4186V20.6512C2.8125 20.7992 2.87176 20.9412 2.97725 21.0458C3.08274 21.1505 3.22582 21.2093 3.375 21.2093H5.625C5.77418 21.2093 5.91726 21.1505 6.02275 21.0458C6.12824 20.9412 6.1875 20.7992 6.1875 20.6512V18.4186C6.1875 18.2706 6.12824 18.1286 6.02275 18.0239C5.91726 17.9193 5.77418 17.8605 5.625 17.8605ZM5.0625 20.093H3.9375V18.9767H5.0625V20.093Z" stroke="white" stroke-width="2" mask="url(#path-1-inside-1_2_2558)"/>
</svg>
